<svg id="Layer_1" data-name="Layer 1" xmlns="http://www.w3.org/2000/svg" xmlns:xlink="http://www.w3.org/1999/xlink" viewBox="0 0 50.55 20"><defs><style>.cls-1{fill:none;}.cls-2{fill:#fff;}.cls-3{clip-path:url(#clip-path);}.cls-4{fill:#fefefe;}.cls-5{fill:#fdfdfd;}.cls-6{fill:#fcfcfc;}.cls-7{fill:#fbfbfb;}.cls-8{fill:#fafafa;}.cls-9{fill:#f9f9f9;}.cls-10{fill:#f8f8f8;}.cls-11{fill:#f7f7f7;}.cls-12{fill:#f6f6f6;}.cls-13{fill:#f5f5f5;}.cls-14{fill:#f4f4f4;}.cls-15{fill:#f3f3f3;}.cls-16{fill:#f2f2f2;}.cls-17{fill:#f1f1f1;}.cls-18{fill:#f0f0f0;}.cls-19{fill:#efefef;}.cls-20{fill:#eee;}.cls-21{fill:#ededed;}.cls-22{fill:#ececec;}.cls-23{fill:#ebebeb;}.cls-24{fill:#eaeaea;}.cls-25{fill:#e9e9e9;}.cls-26{fill:#e8e8e8;}.cls-27{fill:#e7e7e7;}.cls-28{fill:#e6e6e6;}.cls-29{fill:#e5e5e5;}.cls-30{fill:#e4e4e4;}.cls-31{fill:#e3e3e3;}.cls-32{fill:#e2e2e2;}.cls-33{fill:#e1e1e1;}.cls-34{fill:#e0e0e0;}.cls-35{fill:#dfdfdf;}.cls-36{fill:#dedede;}.cls-37{fill:#ddd;}.cls-38{fill:#dcdcdc;}.cls-39{fill:#dbdbdb;}.cls-40{fill:#dadada;}.cls-41{fill:#dad9d9;}.cls-42{fill:#d9d8d8;}.cls-43{fill:#d8d7d7;}.cls-44{fill:#d7d6d6;}.cls-45{fill:#d6d5d5;}.cls-46{fill:#d5d4d4;}.cls-47{fill:#d4d3d3;}.cls-48{fill:#d3d2d2;}.cls-49{fill:#d2d1d1;}.cls-50{fill:#d1d0d0;}.cls-51{fill:#d0cfcf;}.cls-52{fill:#cfcece;}.cls-53{fill:#cecdcd;}.cls-54{fill:#cdcccc;}.cls-55{fill:#cccbcb;}.cls-56{fill:#cbcaca;}.cls-57{fill:#cac9c9;}.cls-58{fill:#c9c8c8;}.cls-59{fill:#c8c7c7;}.cls-60{fill:#c7c6c6;}.cls-61{fill:#c6c5c5;}.cls-62{fill:#c5c4c4;}.cls-63{fill:#c4c3c3;}.cls-64{fill:#c3c2c2;}.cls-65{fill:#c2c1c1;}.cls-66{fill:#c1c0c0;}.cls-67{fill:#c0bfbf;}.cls-68{fill:#bfbebe;}.cls-69{fill:#bebdbd;}.cls-70{fill:#bdbcbc;}.cls-71{fill:#bcbbbb;}.cls-72{fill:#bbbaba;}.cls-73{fill:#bab9b9;}.cls-74{fill:#b9b8b8;}.cls-75{fill:#b8b7b7;}.cls-76{fill:#b7b6b6;}.cls-77{fill:#b6b5b5;}.cls-78{fill:#b5b4b4;}.cls-79{fill:#b4b3b3;}.cls-80{fill:#b3b2b2;}.cls-81{fill:#b2b1b1;}.cls-82{fill:#b1b0b0;}.cls-83{fill:#b0afaf;}.cls-84{fill:#afaeae;}.cls-85{fill:#aeadad;}.cls-86{fill:#adacac;}.cls-87{fill:#acabab;}.cls-88{fill:#abaaaa;}.cls-89{fill:#aaa9a9;}.cls-90{fill:#a9a8a8;}.cls-91{fill:#a8a7a7;}.cls-92{fill:#a7a6a6;}.cls-93{fill:#a6a5a5;}.cls-94{fill:#a5a4a4;}.cls-95{fill:#a4a3a3;}.cls-96{fill:#a3a2a2;}.cls-97{fill:#a2a1a1;}.cls-98{fill:#a1a0a0;}.cls-99{fill:#a09f9f;}.cls-100{fill:#9f9e9e;}.cls-101{fill:#9e9d9d;}.cls-102{fill:#9d9c9c;}.cls-103{fill:#9c9b9b;}.cls-104{fill:#9b9a9a;}.cls-105{fill:#9a9999;}.cls-106{fill:#999898;}.cls-107{fill:#989797;}.cls-108{fill:#979696;}.cls-109{fill:#969595;}.cls-110{fill:#959494;}.cls-111{fill:#949393;}.cls-112{fill:#939292;}.cls-113{fill:#929191;}.cls-114{fill:#919090;}.cls-115{fill:#918e8f;}.cls-116{fill:#908d8e;}.cls-117{fill:#8f8c8d;}.cls-118{fill:#8e8b8c;}.cls-119{fill:#8d8a8b;}.cls-120{fill:#8c898a;}.cls-121{fill:#8b8889;}.cls-122{fill:#8a8788;}.cls-123{fill:#898687;}.cls-124{fill:#888586;}.cls-125{fill:#878485;}.cls-126{fill:#868384;}.cls-127{fill:#858283;}.cls-128{fill:#848182;}.cls-129{fill:#838081;}.cls-130{fill:#827f80;}.cls-131{fill:#817e7f;}.cls-132{fill:#807d7e;}.cls-133{fill:#7f7c7d;}.cls-134{fill:#7e7b7c;}.cls-135{fill:#7d7a7b;}.cls-136{fill:#7c797a;}.cls-137{fill:#7b7879;}.cls-138{fill:#7a7778;}.cls-139{fill:#797677;}.cls-140{fill:#787576;}.cls-141{fill:#777475;}.cls-142{fill:#767374;}.cls-143{fill:#757273;}.cls-144{fill:#747172;}.cls-145{fill:#737071;}.cls-146{fill:#726f70;}.cls-147{fill:#716e6f;}.cls-148{fill:#706d6e;}.cls-149{fill:#6f6c6d;}.cls-150{fill:#6e6b6c;}.cls-151{fill:#6d6a6b;}.cls-152{fill:#6c696a;}.cls-153{fill:#6b6869;}.cls-154{fill:#6a6768;}.cls-155{fill:#696667;}.cls-156{fill:#686566;}.cls-157{fill:#676465;}.cls-158{fill:#666364;}.cls-159{fill:#656263;}.cls-160{fill:#646162;}.cls-161{fill:#636061;}.cls-162{fill:#625f60;}.cls-163{fill:#615e5f;}.cls-164{fill:#605d5e;}.cls-165{fill:#5f5c5d;}.cls-166{fill:#5e5b5c;}.cls-167{fill:#5d5a5b;}.cls-168{fill:#5c595a;}.cls-169{fill:#5b5859;}.cls-170{fill:#5a5758;}.cls-171{fill:#595657;}.cls-172{fill:#585556;}.cls-173{fill:#575455;}.cls-174{fill:#565354;}.cls-175{fill:#555253;}.cls-176{fill:#545152;}.cls-177{fill:#535051;}.cls-178{fill:#524f50;}.cls-179{fill:#514e4f;}.cls-180{fill:#504d4e;}.cls-181{fill:#4f4c4d;}.cls-182{fill:#4e4b4c;}.cls-183{fill:#4d4a4b;}.cls-184{fill:#4c494a;}.cls-185{fill:#4b4849;}.cls-186{fill:#4a4748;}.cls-187{fill:#494647;}.cls-188{fill:#484546;}.cls-189{fill:#484445;}.cls-190{fill:#474344;}.cls-191{fill:#464243;}.cls-192{fill:#454142;}.cls-193{fill:#444041;}.cls-194{fill:#433f40;}.cls-195{fill:#423e3f;}.cls-196{fill:#413d3e;}.cls-197{fill:#403c3d;}.cls-198{fill:#3f3b3c;}.cls-199{fill:#3e3a3b;}.cls-200{fill:#3d393a;}.cls-201{fill:#3c3839;}.cls-202{fill:#3b3738;}.cls-203{fill:#3a3637;}.cls-204{fill:#393536;}.cls-205{fill:#383435;}.cls-206{fill:#373334;}.cls-207{fill:#363233;}.cls-208{fill:#353132;}.cls-209{fill:#343031;}.cls-210{fill:#332f30;}.cls-211{fill:#322e2f;}.cls-212{fill:#312d2e;}.cls-213{fill:#302c2d;}.cls-214{fill:#2f2b2c;}.cls-215{fill:#2e2a2b;}.cls-216{fill:#2d292a;}.cls-217{fill:#2c2829;}.cls-218{fill:#2b2728;}.cls-219{fill:#2a2627;}.cls-220{fill:#292526;}.cls-221{fill:#282425;}.cls-222{fill:#272324;}.cls-223{fill:#262223;}.cls-224{fill:#252122;}.cls-225{fill:#242021;}.cls-226{fill:#231f20;}.cls-227{clip-path:url(#clip-path-2);}.cls-228{clip-path:url(#clip-path-3);}.cls-229{clip-path:url(#clip-path-4);}.cls-230{clip-path:url(#clip-path-5);}</style><clipPath id="clip-path" transform="translate(-934.91 -530.32)"><path class="cls-1" d="M970,550.32h-3.84l-1.26-1.5,0,0-1.25-1.32-2.17-2.33-2.49-2.6,2.68-1.21h0C964.43,544.28,970,550.32,970,550.32Z"/></clipPath><clipPath id="clip-path-2" transform="translate(-934.91 -530.32)"><path class="cls-1" d="M967.69,542.05h0a3.26,3.26,0,0,1-.79,1.85c-.61-.66-1.22-1.3-1.94-2a3.57,3.57,0,0,0,.39-1.73l2.33,1.93Z"/></clipPath><clipPath id="clip-path-3" transform="translate(-934.91 -530.32)"><path class="cls-1" d="M959.82,537.2c1.27-.58,2.14-1.33,1.53-2.36a1.44,1.44,0,0,0-1-.36,1.23,1.23,0,0,0-.91.36l-.12.14c1.1-1.81,4-1.67,4.15.48.38,4.15-5.7,3-9.2,6.46-1.1,1.1-2.42,3.81.44,6.88-.13-.09-.24-.18-.36-.28a5.92,5.92,0,0,1,1.22-9.83c.58-.26,1.65-.54,2.72-.9A15.62,15.62,0,0,0,959.82,537.2Z"/></clipPath><clipPath id="clip-path-4" transform="translate(-934.91 -530.32)"><path class="cls-1" d="M961.46,545.15l2.17,2.33a4.67,4.67,0,0,1-4.17.5c-3.77-1.77-1.63-4.52-1.47-4.71h0a1.35,1.35,0,0,0,.33,1.83,2.41,2.41,0,0,0,1.54.52A2.52,2.52,0,0,0,961.46,545.15Z"/></clipPath><clipPath id="clip-path-5" transform="translate(-934.91 -530.32)"><path class="cls-1" d="M960.28,530.32l.43,0c-5.05.84-5.08,5.09-2.46,7.39l0,.06c-1.07.36-2.14.64-2.72.9a5.91,5.91,0,0,1-1.3-3.25,4.65,4.65,0,0,1,1.65-3.7A6.52,6.52,0,0,1,960.28,530.32Z"/></clipPath></defs><path class="cls-2" d="M934.91,547.44V532.83h4.15v5.49h4.63v-5.49h4.15v14.61h-4.15V542h-4.63v5.47Z" transform="translate(-934.91 -530.32)"/><path d="M968.22,545.3l1.79,2v3s-5.57-6-8.35-9c.87-.4,1.66-.76,1.9-.89l1.42,1.41c.72.75,1.33,1.39,1.94,2,.38.4.76.81,1.18,1.24Z" transform="translate(-934.91 -530.32)"/><g class="cls-3"><path class="cls-2" d="M959,541.34v0Z" transform="translate(-934.91 -530.32)"/><rect class="cls-2" x="24.06" y="11.01" width="0.05" height="8.99"/><rect class="cls-4" x="24.11" y="11.01" width="0.05" height="8.99"/><rect class="cls-5" x="24.16" y="11.01" width="0.05" height="8.99"/><rect class="cls-6" x="24.21" y="11.01" width="0.05" height="8.99"/><rect class="cls-7" x="24.26" y="11.01" width="0.05" height="8.99"/><rect class="cls-8" x="24.3" y="11.01" width="0.05" height="8.99"/><rect class="cls-9" x="24.35" y="11.01" width="0.05" height="8.99"/><rect class="cls-10" x="24.4" y="11.01" width="0.05" height="8.99"/><rect class="cls-11" x="24.45" y="11.01" width="0.05" height="8.99"/><rect class="cls-12" x="24.5" y="11.01" width="0.05" height="8.99"/><rect class="cls-13" x="24.55" y="11.01" width="0.05" height="8.99"/><rect class="cls-14" x="24.6" y="11.01" width="0.05" height="8.99"/><rect class="cls-15" x="24.65" y="11.01" width="0.05" height="8.99"/><rect class="cls-16" x="24.7" y="11.01" width="0.05" height="8.99"/><rect class="cls-17" x="24.75" y="11.01" width="0.05" height="8.99"/><rect class="cls-18" x="24.8" y="11.01" width="0.05" height="8.99"/><rect class="cls-19" x="24.85" y="11.01" width="0.05" height="8.99"/><rect class="cls-20" x="24.9" y="11.01" width="0.05" height="8.99"/><rect class="cls-21" x="24.95" y="11.01" width="0.05" height="8.99"/><rect class="cls-22" x="24.99" y="11.01" width="0.05" height="8.99"/><rect class="cls-23" x="25.04" y="11.01" width="0.05" height="8.99"/><rect class="cls-24" x="25.09" y="11.01" width="0.05" height="8.99"/><rect class="cls-25" x="25.14" y="11.01" width="0.05" height="8.99"/><rect class="cls-26" x="25.19" y="11.01" width="0.05" height="8.99"/><rect class="cls-27" x="25.24" y="11.01" width="0.05" height="8.99"/><rect class="cls-28" x="25.29" y="11.01" width="0.05" height="8.99"/><rect class="cls-29" x="25.34" y="11.01" width="0.05" height="8.99"/><rect class="cls-30" x="25.39" y="11.01" width="0.05" height="8.99"/><rect class="cls-31" x="25.44" y="11.01" width="0.05" height="8.99"/><rect class="cls-32" x="25.49" y="11.01" width="0.05" height="8.99"/><rect class="cls-33" x="25.54" y="11.01" width="0.05" height="8.99"/><rect class="cls-34" x="25.59" y="11.01" width="0.05" height="8.99"/><rect class="cls-35" x="25.63" y="11.01" width="0.05" height="8.99"/><rect class="cls-36" x="25.68" y="11.01" width="0.05" height="8.99"/><rect class="cls-37" x="25.73" y="11.01" width="0.05" height="8.99"/><rect class="cls-38" x="25.78" y="11.01" width="0.05" height="8.99"/><rect class="cls-39" x="25.83" y="11.01" width="0.05" height="8.99"/><rect class="cls-40" x="25.88" y="11.01" width="0.05" height="8.99"/><rect class="cls-41" x="25.93" y="11.01" width="0.05" height="8.99"/><rect class="cls-42" x="25.98" y="11.01" width="0.05" height="8.99"/><rect class="cls-43" x="26.03" y="11.01" width="0.05" height="8.99"/><rect class="cls-44" x="26.08" y="11.01" width="0.05" height="8.99"/><rect class="cls-45" x="26.13" y="11.01" width="0.05" height="8.99"/><rect class="cls-46" x="26.18" y="11.01" width="0.05" height="8.99"/><rect class="cls-47" x="26.23" y="11.01" width="0.05" height="8.99"/><rect class="cls-48" x="26.27" y="11.01" width="0.05" height="8.99"/><rect class="cls-49" x="26.32" y="11.01" width="0.05" height="8.99"/><rect class="cls-50" x="26.37" y="11.01" width="0.05" height="8.99"/><rect class="cls-51" x="26.42" y="11.01" width="0.05" height="8.99"/><rect class="cls-52" x="26.47" y="11.01" width="0.05" height="8.99"/><rect class="cls-53" x="26.52" y="11.01" width="0.05" height="8.99"/><rect class="cls-54" x="26.57" y="11.01" width="0.05" height="8.99"/><rect class="cls-55" x="26.62" y="11.01" width="0.05" height="8.99"/><rect class="cls-56" x="26.67" y="11.01" width="0.05" height="8.99"/><rect class="cls-57" x="26.72" y="11.01" width="0.05" height="8.99"/><rect class="cls-58" x="26.77" y="11.01" width="0.05" height="8.99"/><rect class="cls-59" x="26.82" y="11.01" width="0.05" height="8.99"/><rect class="cls-60" x="26.87" y="11.01" width="0.05" height="8.99"/><rect class="cls-61" x="26.91" y="11.01" width="0.05" height="8.99"/><rect class="cls-62" x="26.96" y="11.01" width="0.05" height="8.99"/><rect class="cls-63" x="27.01" y="11.01" width="0.05" height="8.99"/><rect class="cls-64" x="27.06" y="11.01" width="0.05" height="8.99"/><rect class="cls-65" x="27.11" y="11.01" width="0.05" height="8.99"/><rect class="cls-66" x="27.16" y="11.01" width="0.05" height="8.99"/><rect class="cls-67" x="27.21" y="11.01" width="0.05" height="8.99"/><rect class="cls-68" x="27.26" y="11.01" width="0.05" height="8.99"/><rect class="cls-69" x="27.31" y="11.01" width="0.05" height="8.99"/><rect class="cls-70" x="27.36" y="11.01" width="0.05" height="8.99"/><rect class="cls-71" x="27.41" y="11.01" width="0.05" height="8.99"/><rect class="cls-72" x="27.46" y="11.01" width="0.05" height="8.99"/><rect class="cls-73" x="27.51" y="11.01" width="0.05" height="8.99"/><rect class="cls-74" x="27.55" y="11.01" width="0.05" height="8.99"/><rect class="cls-75" x="27.6" y="11.01" width="0.05" height="8.99"/><rect class="cls-76" x="27.65" y="11.01" width="0.05" height="8.99"/><rect class="cls-77" x="27.7" y="11.01" width="0.05" height="8.99"/><rect class="cls-78" x="27.75" y="11.01" width="0.05" height="8.99"/><rect class="cls-79" x="27.8" y="11.01" width="0.05" height="8.99"/><rect class="cls-80" x="27.85" y="11.01" width="0.05" height="8.99"/><rect class="cls-81" x="27.9" y="11.01" width="0.05" height="8.99"/><rect class="cls-82" x="27.95" y="11.01" width="0.05" height="8.99"/><rect class="cls-83" x="28" y="11.01" width="0.05" height="8.99"/><rect class="cls-84" x="28.05" y="11.01" width="0.05" height="8.99"/><rect class="cls-85" x="28.1" y="11.01" width="0.05" height="8.99"/><rect class="cls-86" x="28.15" y="11.01" width="0.05" height="8.99"/><rect class="cls-87" x="28.19" y="11.01" width="0.05" height="8.99"/><rect class="cls-88" x="28.24" y="11.01" width="0.05" height="8.99"/><rect class="cls-89" x="28.29" y="11.01" width="0.05" height="8.99"/><rect class="cls-90" x="28.34" y="11.01" width="0.05" height="8.99"/><rect class="cls-91" x="28.39" y="11.01" width="0.05" height="8.99"/><rect class="cls-92" x="28.44" y="11.01" width="0.05" height="8.99"/><rect class="cls-93" x="28.49" y="11.01" width="0.05" height="8.99"/><rect class="cls-94" x="28.54" y="11.01" width="0.05" height="8.99"/><rect class="cls-95" x="28.59" y="11.01" width="0.05" height="8.99"/><rect class="cls-96" x="28.64" y="11.01" width="0.05" height="8.99"/><rect class="cls-97" x="28.69" y="11.01" width="0.05" height="8.99"/><rect class="cls-98" x="28.74" y="11.01" width="0.05" height="8.99"/><rect class="cls-99" x="28.79" y="11.01" width="0.05" height="8.99"/><rect class="cls-100" x="28.83" y="11.01" width="0.05" height="8.99"/><rect class="cls-101" x="28.88" y="11.01" width="0.05" height="8.99"/><rect class="cls-102" x="28.93" y="11.01" width="0.05" height="8.99"/><rect class="cls-103" x="28.98" y="11.01" width="0.05" height="8.99"/><rect class="cls-104" x="29.03" y="11.01" width="0.05" height="8.99"/><rect class="cls-105" x="29.08" y="11.01" width="0.05" height="8.99"/><rect class="cls-106" x="29.13" y="11.01" width="0.05" height="8.99"/><rect class="cls-107" x="29.18" y="11.01" width="0.05" height="8.99"/><rect class="cls-108" x="29.23" y="11.01" width="0.05" height="8.99"/><rect class="cls-109" x="29.28" y="11.01" width="0.05" height="8.99"/><rect class="cls-110" x="29.33" y="11.01" width="0.05" height="8.99"/><rect class="cls-111" x="29.38" y="11.01" width="0.05" height="8.99"/><rect class="cls-112" x="29.43" y="11.01" width="0.05" height="8.99"/><rect class="cls-113" x="29.47" y="11.01" width="0.05" height="8.99"/><rect class="cls-114" x="29.52" y="11.01" width="0.05" height="8.99"/><rect class="cls-115" x="29.57" y="11.01" width="0.05" height="8.99"/><rect class="cls-116" x="29.62" y="11.01" width="0.05" height="8.99"/><rect class="cls-117" x="29.67" y="11.01" width="0.05" height="8.99"/><rect class="cls-118" x="29.72" y="11.01" width="0.05" height="8.99"/><rect class="cls-119" x="29.77" y="11.01" width="0.05" height="8.99"/><rect class="cls-120" x="29.82" y="11.01" width="0.05" height="8.99"/><rect class="cls-121" x="29.87" y="11.01" width="0.05" height="8.99"/><rect class="cls-122" x="29.92" y="11.01" width="0.05" height="8.99"/><rect class="cls-123" x="29.97" y="11.01" width="0.05" height="8.99"/><rect class="cls-124" x="30.02" y="11.01" width="0.05" height="8.99"/><rect class="cls-125" x="30.07" y="11.01" width="0.05" height="8.99"/><rect class="cls-126" x="30.12" y="11.01" width="0.05" height="8.99"/><rect class="cls-127" x="30.16" y="11.01" width="0.05" height="8.99"/><rect class="cls-128" x="30.21" y="11.01" width="0.05" height="8.99"/><rect class="cls-129" x="30.26" y="11.01" width="0.05" height="8.99"/><rect class="cls-130" x="30.31" y="11.01" width="0.05" height="8.99"/><rect class="cls-131" x="30.36" y="11.01" width="0.05" height="8.99"/><rect class="cls-132" x="30.41" y="11.01" width="0.05" height="8.99"/><rect class="cls-133" x="30.46" y="11.01" width="0.05" height="8.99"/><rect class="cls-134" x="30.51" y="11.01" width="0.05" height="8.99"/><rect class="cls-135" x="30.56" y="11.01" width="0.05" height="8.99"/><rect class="cls-136" x="30.61" y="11.01" width="0.05" height="8.99"/><rect class="cls-137" x="30.66" y="11.01" width="0.05" height="8.99"/><rect class="cls-138" x="30.71" y="11.01" width="0.05" height="8.99"/><rect class="cls-139" x="30.76" y="11.01" width="0.05" height="8.99"/><rect class="cls-140" x="30.8" y="11.01" width="0.05" height="8.99"/><rect class="cls-141" x="30.85" y="11.01" width="0.05" height="8.99"/><rect class="cls-142" x="30.9" y="11.01" width="0.05" height="8.99"/><rect class="cls-143" x="30.95" y="11.01" width="0.05" height="8.99"/><rect class="cls-144" x="31" y="11.01" width="0.05" height="8.99"/><rect class="cls-145" x="31.05" y="11.01" width="0.05" height="8.99"/><rect class="cls-146" x="31.1" y="11.01" width="0.05" height="8.99"/><rect class="cls-147" x="31.15" y="11.01" width="0.05" height="8.99"/><rect class="cls-148" x="31.2" y="11.01" width="0.05" height="8.99"/><rect class="cls-149" x="31.25" y="11.01" width="0.05" height="8.99"/><rect class="cls-150" x="31.3" y="11.01" width="0.05" height="8.99"/><rect class="cls-151" x="31.35" y="11.01" width="0.05" height="8.99"/><rect class="cls-152" x="31.4" y="11.01" width="0.05" height="8.99"/><rect class="cls-153" x="31.44" y="11.01" width="0.05" height="8.99"/><rect class="cls-154" x="31.49" y="11.01" width="0.05" height="8.99"/><rect class="cls-155" x="31.54" y="11.01" width="0.05" height="8.99"/><rect class="cls-156" x="31.59" y="11.01" width="0.05" height="8.99"/><rect class="cls-157" x="31.64" y="11.01" width="0.05" height="8.99"/><rect class="cls-158" x="31.69" y="11.01" width="0.05" height="8.99"/><rect class="cls-159" x="31.74" y="11.01" width="0.05" height="8.99"/><rect class="cls-160" x="31.79" y="11.01" width="0.05" height="8.99"/><rect class="cls-161" x="31.84" y="11.01" width="0.05" height="8.99"/><rect class="cls-162" x="31.89" y="11.01" width="0.05" height="8.99"/><rect class="cls-163" x="31.94" y="11.01" width="0.05" height="8.99"/><rect class="cls-164" x="31.99" y="11.01" width="0.05" height="8.99"/><rect class="cls-165" x="32.04" y="11.01" width="0.05" height="8.99"/><rect class="cls-166" x="32.08" y="11.01" width="0.05" height="8.99"/><rect class="cls-167" x="32.13" y="11.01" width="0.05" height="8.99"/><rect class="cls-168" x="32.18" y="11.01" width="0.05" height="8.99"/><rect class="cls-169" x="32.23" y="11.01" width="0.05" height="8.99"/><rect class="cls-170" x="32.28" y="11.01" width="0.05" height="8.99"/><rect class="cls-171" x="32.33" y="11.01" width="0.05" height="8.99"/><rect class="cls-172" x="32.38" y="11.01" width="0.05" height="8.99"/><rect class="cls-173" x="32.43" y="11.01" width="0.05" height="8.99"/><rect class="cls-174" x="32.48" y="11.01" width="0.05" height="8.99"/><rect class="cls-175" x="32.53" y="11.01" width="0.05" height="8.99"/><rect class="cls-176" x="32.58" y="11.01" width="0.05" height="8.99"/><rect class="cls-177" x="32.63" y="11.01" width="0.05" height="8.99"/><rect class="cls-178" x="32.68" y="11.01" width="0.05" height="8.99"/><rect class="cls-179" x="32.72" y="11.01" width="0.05" height="8.99"/><rect class="cls-180" x="32.77" y="11.01" width="0.05" height="8.99"/><rect class="cls-181" x="32.82" y="11.01" width="0.05" height="8.99"/><rect class="cls-182" x="32.87" y="11.01" width="0.05" height="8.99"/><rect class="cls-183" x="32.92" y="11.01" width="0.05" height="8.99"/><rect class="cls-184" x="32.97" y="11.01" width="0.05" height="8.99"/><rect class="cls-185" x="33.02" y="11.01" width="0.05" height="8.99"/><rect class="cls-186" x="33.07" y="11.01" width="0.05" height="8.99"/><rect class="cls-187" x="33.12" y="11.01" width="0.05" height="8.99"/><rect class="cls-188" x="33.17" y="11.01" width="0.05" height="8.99"/><rect class="cls-189" x="33.22" y="11.01" width="0.05" height="8.99"/><rect class="cls-190" x="33.27" y="11.01" width="0.05" height="8.99"/><rect class="cls-191" x="33.32" y="11.01" width="0.05" height="8.99"/><rect class="cls-192" x="33.36" y="11.01" width="0.05" height="8.99"/><rect class="cls-193" x="33.41" y="11.01" width="0.05" height="8.99"/><rect class="cls-194" x="33.46" y="11.01" width="0.05" height="8.99"/><rect class="cls-195" x="33.51" y="11.01" width="0.05" height="8.99"/><rect class="cls-196" x="33.56" y="11.01" width="0.05" height="8.99"/><rect class="cls-197" x="33.61" y="11.01" width="0.05" height="8.99"/><rect class="cls-198" x="33.66" y="11.01" width="0.05" height="8.99"/><rect class="cls-199" x="33.71" y="11.01" width="0.05" height="8.99"/><rect class="cls-200" x="33.76" y="11.01" width="0.05" height="8.99"/><rect class="cls-201" x="33.81" y="11.01" width="0.05" height="8.99"/><rect class="cls-202" x="33.86" y="11.01" width="0.05" height="8.99"/><rect class="cls-203" x="33.91" y="11.01" width="0.05" height="8.99"/><rect class="cls-204" x="33.96" y="11.01" width="0.05" height="8.99"/><rect class="cls-205" x="34" y="11.01" width="0.05" height="8.99"/><rect class="cls-206" x="34.05" y="11.01" width="0.05" height="8.99"/><rect class="cls-207" x="34.1" y="11.01" width="0.05" height="8.99"/><rect class="cls-208" x="34.15" y="11.01" width="0.05" height="8.99"/><rect class="cls-209" x="34.2" y="11.01" width="0.05" height="8.99"/><rect class="cls-210" x="34.25" y="11.01" width="0.05" height="8.99"/><rect class="cls-211" x="34.3" y="11.01" width="0.05" height="8.99"/><rect class="cls-212" x="34.35" y="11.01" width="0.05" height="8.99"/><rect class="cls-213" x="34.4" y="11.01" width="0.05" height="8.99"/><rect class="cls-214" x="34.45" y="11.01" width="0.05" height="8.99"/><rect class="cls-215" x="34.5" y="11.01" width="0.05" height="8.99"/><rect class="cls-216" x="34.55" y="11.01" width="0.05" height="8.99"/><rect class="cls-217" x="34.6" y="11.01" width="0.05" height="8.99"/><rect class="cls-218" x="34.64" y="11.01" width="0.05" height="8.99"/><rect class="cls-219" x="34.69" y="11.01" width="0.05" height="8.99"/><rect class="cls-220" x="34.74" y="11.01" width="0.05" height="8.99"/><rect class="cls-221" x="34.79" y="11.01" width="0.05" height="8.99"/><rect class="cls-222" x="34.84" y="11.01" width="0.05" height="8.99"/><rect class="cls-223" x="34.89" y="11.01" width="0.05" height="8.99"/><rect class="cls-224" x="34.94" y="11.01" width="0.05" height="8.99"/><rect class="cls-225" x="34.99" y="11.01" width="0.05" height="8.99"/><rect class="cls-226" x="35.04" y="11.01" width="0.05" height="8.99"/><path class="cls-226" d="M970,550.32v0Z" transform="translate(-934.91 -530.32)"/></g><path d="M967.69,542.05l1.84-1.12a6.75,6.75,0,0,1-1.44,4.22c-.42-.43-.8-.84-1.18-1.24a3.26,3.26,0,0,0,.79-1.85Z" transform="translate(-934.91 -530.32)"/><polygon points="34.63 10.6 32.79 11.73 32.78 11.73 30.45 9.81 32.4 9.01 34.63 10.6"/><g class="cls-227"><polygon class="cls-2" points="30.07 13.19 30.69 13.59 30.07 13.59 30.07 13.19"/><polygon class="cls-2" points="30.07 13.17 30.71 13.59 30.69 13.59 30.07 13.19 30.07 13.17"/><polygon class="cls-4" points="30.07 13.16 30.74 13.59 30.71 13.59 30.07 13.17 30.07 13.16"/><polygon class="cls-5" points="30.07 13.14 30.76 13.59 30.74 13.59 30.07 13.16 30.07 13.14"/><polygon class="cls-6" points="30.07 13.13 30.79 13.59 30.76 13.59 30.07 13.14 30.07 13.13"/><polygon class="cls-7" points="30.07 13.11 30.81 13.59 30.79 13.59 30.07 13.13 30.07 13.11"/><polygon class="cls-8" points="30.07 13.1 30.83 13.59 30.81 13.59 30.07 13.11 30.07 13.1"/><polygon class="cls-9" points="30.07 13.08 30.86 13.59 30.83 13.59 30.07 13.1 30.07 13.08"/><polygon class="cls-10" points="30.07 13.07 30.88 13.59 30.86 13.59 30.07 13.08 30.07 13.07"/><polygon class="cls-11" points="30.07 13.05 30.9 13.59 30.88 13.59 30.07 13.07 30.07 13.05"/><polygon class="cls-12" points="30.07 13.04 30.93 13.59 30.9 13.59 30.07 13.05 30.07 13.04"/><polygon class="cls-13" points="30.07 13.02 30.95 13.59 30.93 13.59 30.07 13.04 30.07 13.02"/><polygon class="cls-14" points="30.07 13.01 30.97 13.59 30.95 13.59 30.07 13.02 30.07 13.01"/><polygon class="cls-15" points="30.07 12.99 31 13.59 30.97 13.59 30.07 13.01 30.07 12.99"/><polygon class="cls-16" points="30.07 12.98 31.02 13.59 31 13.59 30.07 12.99 30.07 12.98"/><polygon class="cls-17" points="30.07 12.96 31.05 13.59 31.02 13.59 30.07 12.98 30.07 12.96"/><polygon class="cls-18" points="30.07 12.95 31.07 13.59 31.05 13.59 30.07 12.96 30.07 12.95"/><polygon class="cls-19" points="30.07 12.93 31.09 13.59 31.07 13.59 30.07 12.95 30.07 12.93"/><polygon class="cls-20" points="30.07 12.92 31.11 13.59 31.09 13.59 30.07 12.93 30.07 12.92"/><polygon class="cls-21" points="30.07 12.9 31.14 13.59 31.11 13.59 30.07 12.92 30.07 12.9"/><polygon class="cls-22" points="30.07 12.89 31.16 13.59 31.14 13.59 30.07 12.9 30.07 12.89"/><polygon class="cls-23" points="30.07 12.87 31.19 13.59 31.16 13.59 30.07 12.89 30.07 12.87"/><polygon class="cls-24" points="30.07 12.86 31.21 13.59 31.19 13.59 30.07 12.87 30.07 12.86"/><polygon class="cls-25" points="30.07 12.84 31.23 13.59 31.21 13.59 30.07 12.86 30.07 12.84"/><polygon class="cls-26" points="30.07 12.83 31.26 13.59 31.23 13.59 30.07 12.84 30.07 12.83"/><polygon class="cls-27" points="30.07 12.81 31.28 13.59 31.26 13.59 30.07 12.83 30.07 12.81"/><polygon class="cls-28" points="30.07 12.8 31.3 13.59 31.28 13.59 30.07 12.81 30.07 12.8"/><polygon class="cls-29" points="30.07 12.78 31.33 13.59 31.3 13.59 30.07 12.8 30.07 12.78"/><polygon class="cls-30" points="30.07 12.77 31.35 13.59 31.33 13.59 30.07 12.78 30.07 12.77"/><polygon class="cls-31" points="30.07 12.75 31.38 13.59 31.35 13.59 30.07 12.77 30.07 12.75"/><polygon class="cls-32" points="30.07 12.74 31.4 13.59 31.38 13.59 30.07 12.75 30.07 12.74"/><polygon class="cls-33" points="30.07 12.72 31.42 13.59 31.4 13.59 30.07 12.74 30.07 12.72"/><polygon class="cls-34" points="30.07 12.71 31.45 13.59 31.42 13.59 30.07 12.72 30.07 12.71"/><polygon class="cls-35" points="30.07 12.69 31.47 13.59 31.45 13.59 30.07 12.71 30.07 12.69"/><polygon class="cls-36" points="30.07 12.68 31.49 13.59 31.47 13.59 30.07 12.69 30.07 12.68"/><polygon class="cls-37" points="30.07 12.66 31.52 13.59 31.49 13.59 30.07 12.68 30.07 12.66"/><polygon class="cls-38" points="30.07 12.65 31.54 13.59 31.52 13.59 30.07 12.66 30.07 12.65"/><polygon class="cls-39" points="30.07 12.63 31.56 13.59 31.54 13.59 30.07 12.65 30.07 12.63"/><polygon class="cls-40" points="30.07 12.62 31.59 13.59 31.56 13.59 30.07 12.63 30.07 12.62"/><polygon class="cls-41" points="30.07 12.6 31.61 13.59 31.59 13.59 30.07 12.62 30.07 12.6"/><polygon class="cls-42" points="30.07 12.59 31.64 13.59 31.61 13.59 30.07 12.6 30.07 12.59"/><polygon class="cls-43" points="30.07 12.57 31.66 13.59 31.64 13.59 30.07 12.59 30.07 12.57"/><polygon class="cls-44" points="30.07 12.56 31.68 13.59 31.66 13.59 30.07 12.57 30.07 12.56"/><polygon class="cls-45" points="30.07 12.54 31.71 13.59 31.68 13.59 30.07 12.56 30.07 12.54"/><polygon class="cls-46" points="30.07 12.53 31.73 13.59 31.71 13.59 30.07 12.54 30.07 12.53"/><polygon class="cls-47" points="30.07 12.51 31.75 13.59 31.73 13.59 30.07 12.53 30.07 12.51"/><polygon class="cls-48" points="30.07 12.5 31.78 13.59 31.75 13.59 30.07 12.51 30.07 12.5"/><polygon class="cls-49" points="30.07 12.48 31.8 13.59 31.78 13.59 30.07 12.5 30.07 12.48"/><polygon class="cls-50" points="30.07 12.47 31.82 13.59 31.8 13.59 30.07 12.48 30.07 12.47"/><polygon class="cls-51" points="30.07 12.45 31.85 13.59 31.82 13.59 30.07 12.47 30.07 12.45"/><polygon class="cls-52" points="30.07 12.44 31.87 13.59 31.85 13.59 30.07 12.45 30.07 12.44"/><polygon class="cls-53" points="30.07 12.42 31.89 13.59 31.87 13.59 30.07 12.44 30.07 12.42"/><polygon class="cls-54" points="30.07 12.41 31.92 13.59 31.89 13.59 30.07 12.42 30.07 12.41"/><polygon class="cls-55" points="30.07 12.39 31.94 13.59 31.92 13.59 30.07 12.41 30.07 12.39"/><polygon class="cls-56" points="30.07 12.38 31.97 13.59 31.94 13.59 30.07 12.39 30.07 12.38"/><polygon class="cls-57" points="30.07 12.36 31.99 13.59 31.97 13.59 30.07 12.38 30.07 12.36"/><polygon class="cls-58" points="30.07 12.35 32.01 13.59 31.99 13.59 30.07 12.36 30.07 12.35"/><polygon class="cls-59" points="30.07 12.33 32.04 13.59 32.01 13.59 30.07 12.35 30.07 12.33"/><polygon class="cls-60" points="30.07 12.32 32.06 13.59 32.04 13.59 30.07 12.33 30.07 12.32"/><polygon class="cls-61" points="30.07 12.3 32.08 13.59 32.06 13.59 30.07 12.32 30.07 12.3"/><polygon class="cls-62" points="30.07 12.29 32.11 13.59 32.08 13.59 30.07 12.3 30.07 12.29"/><polygon class="cls-63" points="30.07 12.27 32.13 13.59 32.11 13.59 30.07 12.29 30.07 12.27"/><polygon class="cls-64" points="30.07 12.26 32.16 13.59 32.13 13.59 30.07 12.27 30.07 12.26"/><polygon class="cls-65" points="30.07 12.24 32.18 13.59 32.16 13.59 30.07 12.26 30.07 12.24"/><polygon class="cls-66" points="30.07 12.23 32.2 13.59 32.18 13.59 30.07 12.24 30.07 12.23"/><polygon class="cls-67" points="30.07 12.21 32.23 13.59 32.2 13.59 30.07 12.23 30.07 12.21"/><polygon class="cls-68" points="30.07 12.2 32.25 13.59 32.23 13.59 30.07 12.21 30.07 12.2"/><polygon class="cls-69" points="30.07 12.18 32.27 13.59 32.25 13.59 30.07 12.2 30.07 12.18"/><polygon class="cls-70" points="30.07 12.17 32.3 13.59 32.27 13.59 30.07 12.18 30.07 12.17"/><polygon class="cls-71" points="30.07 12.15 32.32 13.59 32.3 13.59 30.07 12.17 30.07 12.15"/><polygon class="cls-72" points="30.07 12.14 32.34 13.59 32.32 13.59 30.07 12.15 30.07 12.14"/><polygon class="cls-73" points="30.07 12.12 32.37 13.59 32.34 13.59 30.07 12.14 30.07 12.12"/><polygon class="cls-74" points="30.07 12.11 32.39 13.59 32.37 13.59 30.07 12.12 30.07 12.11"/><polygon class="cls-75" points="30.07 12.09 32.41 13.59 32.39 13.59 30.07 12.11 30.07 12.09"/><polygon class="cls-76" points="30.07 12.08 32.44 13.59 32.41 13.59 30.07 12.09 30.07 12.08"/><polygon class="cls-77" points="30.07 12.06 32.46 13.59 32.44 13.59 30.07 12.08 30.07 12.06"/><polygon class="cls-78" points="30.07 12.05 32.49 13.59 32.46 13.59 30.07 12.06 30.07 12.05"/><polygon class="cls-79" points="30.07 12.03 32.51 13.59 32.49 13.59 30.07 12.05 30.07 12.03"/><polygon class="cls-80" points="30.07 12.02 32.53 13.59 32.51 13.59 30.07 12.03 30.07 12.02"/><polygon class="cls-81" points="30.07 12 32.56 13.59 32.53 13.59 30.07 12.02 30.07 12"/><polygon class="cls-82" points="30.07 11.99 32.58 13.59 32.56 13.59 30.07 12 30.07 11.99"/><polygon class="cls-83" points="30.07 11.97 32.6 13.59 32.58 13.59 30.07 11.99 30.07 11.97"/><polygon class="cls-84" points="30.07 11.96 32.63 13.59 32.6 13.59 30.07 11.97 30.07 11.96"/><polygon class="cls-85" points="30.07 11.94 32.65 13.59 32.63 13.59 30.07 11.96 30.07 11.94"/><polygon class="cls-86" points="30.07 11.93 32.67 13.59 32.65 13.59 30.07 11.94 30.07 11.93"/><polygon class="cls-87" points="30.07 11.91 32.7 13.59 32.67 13.59 30.07 11.93 30.07 11.91"/><polygon class="cls-88" points="30.07 11.9 32.72 13.59 32.7 13.59 30.07 11.91 30.07 11.9"/><polygon class="cls-89" points="30.07 11.88 32.75 13.59 32.72 13.59 30.07 11.9 30.07 11.88"/><polygon class="cls-90" points="30.07 11.87 32.77 13.59 32.75 13.59 30.07 11.88 30.07 11.87"/><polygon class="cls-91" points="30.07 11.85 32.79 13.58 32.79 13.59 32.77 13.59 30.07 11.87 30.07 11.85"/><polygon class="cls-92" points="30.07 11.84 32.79 13.57 32.79 13.58 30.07 11.85 30.07 11.84"/><polygon class="cls-93" points="30.07 11.82 32.79 13.55 32.79 13.57 30.07 11.84 30.07 11.82"/><polygon class="cls-94" points="30.07 11.81 32.79 13.54 32.79 13.55 30.07 11.82 30.07 11.81"/><polygon class="cls-95" points="30.07 11.79 32.79 13.52 32.79 13.54 30.07 11.81 30.07 11.79"/><polygon class="cls-96" points="30.07 11.78 32.79 13.51 32.79 13.52 30.07 11.79 30.07 11.78"/><polygon class="cls-97" points="30.07 11.76 32.79 13.49 32.79 13.51 30.07 11.78 30.07 11.76"/><polygon class="cls-98" points="30.07 11.75 32.79 13.48 32.79 13.49 30.07 11.76 30.07 11.75"/><polygon class="cls-99" points="30.07 11.73 32.79 13.46 32.79 13.48 30.07 11.75 30.07 11.73"/><polygon class="cls-100" points="30.07 11.72 32.79 13.45 32.79 13.46 30.07 11.73 30.07 11.72"/><polygon class="cls-101" points="30.07 11.7 32.79 13.43 32.79 13.45 30.07 11.72 30.07 11.7"/><polygon class="cls-102" points="30.07 11.69 32.79 13.42 32.79 13.43 30.07 11.7 30.07 11.69"/><polygon class="cls-103" points="30.07 11.67 32.79 13.4 32.79 13.42 30.07 11.69 30.07 11.67"/><polygon class="cls-104" points="30.07 11.66 32.79 13.39 32.79 13.4 30.07 11.67 30.07 11.66"/><polygon class="cls-105" points="30.07 11.64 32.79 13.37 32.79 13.39 30.07 11.66 30.07 11.64"/><polygon class="cls-106" points="30.07 11.63 32.79 13.36 32.79 13.37 30.07 11.64 30.07 11.63"/><polygon class="cls-107" points="30.07 11.61 32.79 13.34 32.79 13.36 30.07 11.63 30.07 11.61"/><polygon class="cls-108" points="30.07 11.6 32.79 13.33 32.79 13.34 30.07 11.61 30.07 11.6"/><polygon class="cls-109" points="30.07 11.58 32.79 13.31 32.79 13.33 30.07 11.6 30.07 11.58"/><polygon class="cls-110" points="30.07 11.57 32.79 13.3 32.79 13.31 30.07 11.58 30.07 11.57"/><polygon class="cls-111" points="30.07 11.55 32.79 13.28 32.79 13.3 30.07 11.57 30.07 11.55"/><polygon class="cls-112" points="30.07 11.54 32.79 13.27 32.79 13.28 30.07 11.55 30.07 11.54"/><polygon class="cls-113" points="30.07 11.52 32.79 13.25 32.79 13.27 30.07 11.54 30.07 11.52"/><polygon class="cls-114" points="30.07 11.51 32.79 13.24 32.79 13.25 30.07 11.52 30.07 11.51"/><polygon class="cls-115" points="30.07 11.49 32.79 13.22 32.79 13.24 30.07 11.51 30.07 11.49"/><polygon class="cls-116" points="30.07 11.48 32.79 13.21 32.79 13.22 30.07 11.49 30.07 11.48"/><polygon class="cls-117" points="30.07 11.46 32.79 13.19 32.79 13.21 30.07 11.48 30.07 11.46"/><polygon class="cls-118" points="30.07 11.45 32.79 13.18 32.79 13.19 30.07 11.46 30.07 11.45"/><polygon class="cls-119" points="30.07 11.43 32.79 13.16 32.79 13.18 30.07 11.45 30.07 11.43"/><polygon class="cls-120" points="30.07 11.42 32.79 13.15 32.79 13.16 30.07 11.43 30.07 11.42"/><polygon class="cls-121" points="30.07 11.4 32.79 13.13 32.79 13.15 30.07 11.42 30.07 11.4"/><polygon class="cls-122" points="30.07 11.39 32.79 13.12 32.79 13.13 30.07 11.4 30.07 11.39"/><polygon class="cls-123" points="30.07 11.37 32.79 13.1 32.79 13.12 30.07 11.39 30.07 11.37"/><polygon class="cls-124" points="30.07 11.36 32.79 13.09 32.79 13.1 30.07 11.37 30.07 11.36"/><polygon class="cls-125" points="30.07 11.34 32.79 13.07 32.79 13.09 30.07 11.36 30.07 11.34"/><polygon class="cls-126" points="30.07 11.33 32.79 13.06 32.79 13.07 30.07 11.34 30.07 11.33"/><polygon class="cls-127" points="30.07 11.31 32.79 13.04 32.79 13.06 30.07 11.33 30.07 11.31"/><polygon class="cls-128" points="30.07 11.3 32.79 13.03 32.79 13.04 30.07 11.31 30.07 11.3"/><polygon class="cls-129" points="30.07 11.28 32.79 13.01 32.79 13.03 30.07 11.3 30.07 11.28"/><polygon class="cls-130" points="30.07 11.27 32.79 13 32.79 13.01 30.07 11.28 30.07 11.27"/><polygon class="cls-131" points="30.07 11.25 32.79 12.98 32.79 13 30.07 11.27 30.07 11.25"/><polygon class="cls-132" points="30.07 11.24 32.79 12.97 32.79 12.98 30.07 11.25 30.07 11.24"/><polygon class="cls-133" points="30.07 11.22 32.79 12.95 32.79 12.97 30.07 11.24 30.07 11.22"/><polygon class="cls-134" points="30.07 11.21 32.79 12.94 32.79 12.95 30.07 11.22 30.07 11.21"/><polygon class="cls-135" points="30.07 11.19 32.79 12.92 32.79 12.94 30.07 11.21 30.07 11.19"/><polygon class="cls-136" points="30.07 11.18 32.79 12.91 32.79 12.92 30.07 11.19 30.07 11.18"/><polygon class="cls-137" points="30.07 11.16 32.79 12.89 32.79 12.91 30.07 11.18 30.07 11.16"/><polygon class="cls-138" points="30.07 11.15 32.79 12.88 32.79 12.89 30.07 11.16 30.07 11.15"/><polygon class="cls-139" points="30.07 11.13 32.79 12.86 32.79 12.88 30.07 11.15 30.07 11.13"/><polygon class="cls-140" points="30.07 11.12 32.79 12.85 32.79 12.86 30.07 11.13 30.07 11.12"/><polygon class="cls-141" points="30.07 11.1 32.79 12.83 32.79 12.85 30.07 11.12 30.07 11.1"/><polygon class="cls-142" points="30.07 11.09 32.79 12.82 32.79 12.83 30.07 11.1 30.07 11.09"/><polygon class="cls-143" points="30.07 11.07 32.79 12.8 32.79 12.82 30.07 11.09 30.07 11.07"/><polygon class="cls-144" points="30.07 11.06 32.79 12.79 32.79 12.8 30.07 11.07 30.07 11.06"/><polygon class="cls-145" points="30.07 11.04 32.79 12.77 32.79 12.79 30.07 11.06 30.07 11.04"/><polygon class="cls-146" points="30.07 11.03 32.79 12.76 32.79 12.77 30.07 11.04 30.07 11.03"/><polygon class="cls-147" points="30.07 11.01 32.79 12.74 32.79 12.76 30.07 11.03 30.07 11.01"/><polygon class="cls-148" points="30.07 11 32.79 12.73 32.79 12.74 30.07 11.01 30.07 11"/><polygon class="cls-149" points="30.07 10.98 32.79 12.71 32.79 12.73 30.07 11 30.07 10.98"/><polygon class="cls-150" points="30.07 10.97 32.79 12.7 32.79 12.71 30.07 10.98 30.07 10.97"/><polygon class="cls-151" points="30.07 10.95 32.79 12.68 32.79 12.7 30.07 10.97 30.07 10.95"/><polygon class="cls-152" points="30.07 10.94 32.79 12.67 32.79 12.68 30.07 10.95 30.07 10.94"/><polygon class="cls-153" points="30.07 10.92 32.79 12.65 32.79 12.67 30.07 10.94 30.07 10.92"/><polygon class="cls-154" points="30.07 10.91 32.79 12.64 32.79 12.65 30.07 10.92 30.07 10.91"/><polygon class="cls-155" points="30.07 10.89 32.79 12.62 32.79 12.64 30.07 10.91 30.07 10.89"/><polygon class="cls-156" points="30.07 10.88 32.79 12.61 32.79 12.62 30.07 10.89 30.07 10.88"/><polygon class="cls-157" points="30.07 10.86 32.79 12.59 32.79 12.61 30.07 10.88 30.07 10.86"/><polygon class="cls-158" points="30.07 10.85 32.79 12.58 32.79 12.59 30.07 10.86 30.07 10.85"/><polygon class="cls-159" points="30.07 10.83 32.79 12.56 32.79 12.58 30.07 10.85 30.07 10.83"/><polygon class="cls-160" points="30.07 10.82 32.79 12.55 32.79 12.56 30.07 10.83 30.07 10.82"/><polygon class="cls-161" points="30.07 10.8 32.79 12.53 32.79 12.55 30.07 10.82 30.07 10.8"/><polygon class="cls-162" points="30.07 10.79 32.79 12.52 32.79 12.53 30.07 10.8 30.07 10.79"/><polygon class="cls-163" points="30.07 10.77 32.79 12.5 32.79 12.52 30.07 10.79 30.07 10.77"/><polygon class="cls-164" points="30.07 10.76 32.79 12.49 32.79 12.5 30.07 10.77 30.07 10.76"/><polygon class="cls-165" points="30.07 10.74 32.79 12.47 32.79 12.49 30.07 10.76 30.07 10.74"/><polygon class="cls-166" points="30.07 10.73 32.79 12.46 32.79 12.47 30.07 10.74 30.07 10.73"/><polygon class="cls-167" points="30.07 10.71 32.79 12.44 32.79 12.46 30.07 10.73 30.07 10.71"/><polygon class="cls-168" points="30.07 10.7 32.79 12.43 32.79 12.44 30.07 10.71 30.07 10.7"/><polygon class="cls-169" points="30.07 10.68 32.79 12.41 32.79 12.43 30.07 10.7 30.07 10.68"/><polygon class="cls-170" points="30.07 10.67 32.79 12.4 32.79 12.41 30.07 10.68 30.07 10.67"/><polygon class="cls-171" points="30.07 10.65 32.79 12.38 32.79 12.4 30.07 10.67 30.07 10.65"/><polygon class="cls-172" points="30.07 10.64 32.79 12.37 32.79 12.38 30.07 10.65 30.07 10.64"/><polygon class="cls-173" points="30.07 10.62 32.79 12.35 32.79 12.37 30.07 10.64 30.07 10.62"/><polygon class="cls-174" points="30.07 10.61 32.79 12.34 32.79 12.35 30.07 10.62 30.07 10.61"/><polygon class="cls-175" points="30.07 10.59 32.79 12.32 32.79 12.34 30.07 10.61 30.07 10.59"/><polygon class="cls-176" points="30.07 10.58 32.79 12.31 32.79 12.32 30.07 10.59 30.07 10.58"/><polygon class="cls-177" points="30.07 10.56 32.79 12.29 32.79 12.31 30.07 10.58 30.07 10.56"/><polygon class="cls-178" points="30.07 10.55 32.79 12.28 32.79 12.29 30.07 10.56 30.07 10.55"/><polygon class="cls-179" points="30.07 10.53 32.79 12.26 32.79 12.28 30.07 10.55 30.07 10.53"/><polygon class="cls-180" points="30.07 10.52 32.79 12.25 32.79 12.26 30.07 10.53 30.07 10.52"/><polygon class="cls-181" points="30.07 10.5 32.79 12.23 32.79 12.25 30.07 10.52 30.07 10.5"/><polygon class="cls-182" points="30.07 10.49 32.79 12.22 32.79 12.23 30.07 10.5 30.07 10.49"/><polygon class="cls-183" points="30.07 10.47 32.79 12.2 32.79 12.22 30.07 10.49 30.07 10.47"/><polygon class="cls-184" points="30.07 10.46 32.79 12.19 32.79 12.2 30.07 10.47 30.07 10.46"/><polygon class="cls-185" points="30.07 10.44 32.79 12.17 32.79 12.19 30.07 10.46 30.07 10.44"/><polygon class="cls-186" points="30.07 10.43 32.79 12.16 32.79 12.17 30.07 10.44 30.07 10.43"/><polygon class="cls-187" points="30.07 10.41 32.79 12.14 32.79 12.16 30.07 10.43 30.07 10.41"/><polygon class="cls-188" points="30.07 10.4 32.79 12.13 32.79 12.14 30.07 10.41 30.07 10.4"/><polygon class="cls-189" points="30.07 10.38 32.79 12.11 32.79 12.13 30.07 10.4 30.07 10.38"/><polygon class="cls-190" points="30.07 10.37 32.79 12.1 32.79 12.11 30.07 10.38 30.07 10.37"/><polygon class="cls-191" points="30.07 10.35 32.79 12.08 32.79 12.1 30.07 10.37 30.07 10.35"/><polygon class="cls-192" points="30.07 10.34 32.79 12.07 32.79 12.08 30.07 10.35 30.07 10.34"/><polygon class="cls-193" points="30.07 10.32 32.79 12.05 32.79 12.07 30.07 10.34 30.07 10.32"/><polygon class="cls-194" points="30.07 10.31 32.79 12.04 32.79 12.05 30.07 10.32 30.07 10.31"/><polygon class="cls-195" points="30.07 10.29 32.79 12.02 32.79 12.04 30.07 10.31 30.07 10.29"/><polygon class="cls-196" points="30.07 10.28 32.79 12.01 32.79 12.02 30.07 10.29 30.07 10.28"/><polygon class="cls-197" points="30.07 10.26 32.79 11.99 32.79 12.01 30.07 10.28 30.07 10.26"/><polygon class="cls-198" points="30.07 10.25 32.79 11.98 32.79 11.99 30.07 10.26 30.07 10.25"/><polygon class="cls-199" points="30.07 10.23 32.79 11.96 32.79 11.98 30.07 10.25 30.07 10.23"/><polygon class="cls-200" points="30.07 10.22 32.79 11.95 32.79 11.96 30.07 10.23 30.07 10.22"/><polygon class="cls-201" points="30.07 10.2 32.79 11.93 32.79 11.95 30.07 10.22 30.07 10.2"/><polygon class="cls-202" points="30.07 10.19 32.79 11.92 32.79 11.93 30.07 10.2 30.07 10.19"/><polygon class="cls-203" points="30.07 10.17 32.79 11.9 32.79 11.92 30.07 10.19 30.07 10.17"/><polygon class="cls-204" points="30.07 10.16 32.79 11.89 32.79 11.9 30.07 10.17 30.07 10.16"/><polygon class="cls-205" points="30.07 10.14 32.79 11.87 32.79 11.89 30.07 10.16 30.07 10.14"/><polygon class="cls-206" points="30.07 10.13 32.79 11.86 32.79 11.87 30.07 10.14 30.07 10.13"/><polygon class="cls-207" points="30.07 10.11 32.79 11.84 32.79 11.86 30.07 10.13 30.07 10.11"/><polygon class="cls-208" points="30.07 10.1 32.79 11.83 32.79 11.84 30.07 10.11 30.07 10.1"/><polygon class="cls-209" points="30.07 10.08 32.79 11.81 32.79 11.83 30.07 10.1 30.07 10.08"/><polygon class="cls-210" points="30.07 10.07 32.79 11.8 32.79 11.81 30.07 10.08 30.07 10.07"/><polygon class="cls-211" points="30.07 10.05 32.79 11.78 32.79 11.8 30.07 10.07 30.07 10.05"/><polygon class="cls-212" points="30.07 10.04 32.79 11.77 32.79 11.78 30.07 10.05 30.07 10.04"/><polygon class="cls-213" points="30.07 10.02 32.79 11.75 32.79 11.77 30.07 10.04 30.07 10.02"/><polygon class="cls-214" points="30.07 10.01 32.79 11.74 32.79 11.75 30.07 10.02 30.07 10.01"/><polygon class="cls-215" points="30.07 9.99 32.79 11.72 32.79 11.74 30.07 10.01 30.07 9.99"/><polygon class="cls-216" points="30.07 9.98 32.79 11.71 32.79 11.72 30.07 9.99 30.07 9.98"/><polygon class="cls-217" points="30.07 9.96 32.79 11.69 32.79 11.71 30.07 9.98 30.07 9.96"/><polygon class="cls-218" points="30.07 9.95 32.79 11.68 32.79 11.69 30.07 9.96 30.07 9.95"/><polygon class="cls-219" points="30.07 9.94 32.79 11.66 32.79 11.68 30.07 9.95 30.07 9.94"/><polygon class="cls-220" points="30.07 9.92 32.79 11.65 32.79 11.66 30.07 9.94 30.07 9.92"/><polygon class="cls-221" points="30.07 9.9 32.79 11.63 32.79 11.65 30.07 9.92 30.07 9.9"/><polygon class="cls-222" points="30.07 9.89 32.79 11.62 32.79 11.63 30.07 9.9 30.07 9.89"/><polygon class="cls-223" points="30.07 9.88 32.79 11.6 32.79 11.62 30.07 9.89 30.07 9.88"/><polygon class="cls-224" points="30.07 9.86 32.79 11.59 32.79 11.6 30.07 9.88 30.07 9.86"/><polygon class="cls-225" points="30.07 9.85 32.79 11.57 32.79 11.59 30.07 9.86 30.07 9.85"/><polygon class="cls-226" points="30.07 9.83 32.79 11.56 32.79 11.57 30.07 9.85 30.07 9.83"/><polygon class="cls-226" points="32.79 11.56 30.07 9.83 30.07 9.81 32.79 9.81 32.79 11.56"/></g><path d="M958,543.27c-.16.19-2.3,2.94,1.47,4.71a4.67,4.67,0,0,0,4.17-.5l1.25,1.32,0,0a8.15,8.15,0,0,1-5,1.48,8.53,8.53,0,0,1-5.23-1.5c-2.86-3.07-1.54-5.78-.44-6.88,3.5-3.49,9.58-2.31,9.2-6.46-.2-2.15-3.05-2.29-4.15-.48a1.22,1.22,0,0,0-.23.76c0,.62.21.89.75,1.46a15.62,15.62,0,0,1-1.55.59l0-.06c-2.62-2.3-2.59-6.55,2.46-7.39a6.17,6.17,0,0,1,4.08,1.46,4.87,4.87,0,0,1,1.62,3.78,5.25,5.25,0,0,1-2.86,4.87c-.24.13-1,.49-1.9.89h0L959,542.55a2.51,2.51,0,0,0-1,.72Z" transform="translate(-934.91 -530.32)"/><g class="cls-228"><polygon class="cls-2" points="16.92 18 17.32 18.48 16.92 18.48 16.92 18"/><polygon class="cls-2" points="16.92 17.89 17.41 18.48 17.32 18.48 16.92 18 16.92 17.89"/><polygon class="cls-4" points="16.92 17.79 17.5 18.48 17.41 18.48 16.92 17.89 16.92 17.79"/><polygon class="cls-5" points="16.92 17.68 17.59 18.48 17.5 18.48 16.92 17.79 16.92 17.68"/><polygon class="cls-6" points="16.92 17.58 17.68 18.48 17.59 18.48 16.92 17.68 16.92 17.58"/><polygon class="cls-7" points="16.92 17.47 17.76 18.48 17.68 18.48 16.92 17.58 16.92 17.47"/><polygon class="cls-8" points="16.92 17.37 17.85 18.48 17.76 18.48 16.92 17.47 16.92 17.37"/><polygon class="cls-9" points="16.92 17.27 17.94 18.48 17.85 18.48 16.92 17.37 16.92 17.27"/><polygon class="cls-10" points="16.92 17.16 18.03 18.48 17.94 18.48 16.92 17.27 16.92 17.16"/><polygon class="cls-11" points="16.92 17.06 18.11 18.48 18.03 18.48 16.92 17.16 16.92 17.06"/><polygon class="cls-12" points="16.92 16.95 18.2 18.48 18.11 18.48 16.92 17.06 16.92 16.95"/><polygon class="cls-13" points="16.92 16.85 18.29 18.48 18.2 18.48 16.92 16.95 16.92 16.85"/><polygon class="cls-14" points="16.92 16.74 18.38 18.48 18.29 18.48 16.92 16.85 16.92 16.74"/><polygon class="cls-15" points="16.92 16.64 18.46 18.48 18.38 18.48 16.92 16.74 16.92 16.64"/><polygon class="cls-16" points="16.92 16.53 18.55 18.48 18.46 18.48 16.92 16.64 16.92 16.53"/><polygon class="cls-17" points="16.92 16.43 18.64 18.48 18.55 18.48 16.92 16.53 16.92 16.43"/><polygon class="cls-18" points="16.92 16.32 18.73 18.48 18.64 18.48 16.92 16.43 16.92 16.32"/><polygon class="cls-19" points="16.92 16.22 18.82 18.48 18.73 18.48 16.92 16.32 16.92 16.22"/><polygon class="cls-20" points="16.92 16.12 18.9 18.48 18.82 18.48 16.92 16.22 16.92 16.12"/><polygon class="cls-21" points="16.92 16.01 18.99 18.48 18.9 18.48 16.92 16.12 16.92 16.01"/><polygon class="cls-22" points="16.92 15.91 19.08 18.48 18.99 18.48 16.92 16.01 16.92 15.91"/><polygon class="cls-23" points="16.92 15.8 19.16 18.48 19.08 18.48 16.92 15.91 16.92 15.8"/><polygon class="cls-24" points="16.92 15.7 19.25 18.48 19.16 18.48 16.92 15.8 16.92 15.7"/><polygon class="cls-25" points="16.92 15.59 19.34 18.48 19.25 18.48 16.92 15.7 16.92 15.59"/><polygon class="cls-26" points="16.92 15.49 19.43 18.48 19.34 18.48 16.92 15.59 16.92 15.49"/><polygon class="cls-27" points="16.92 15.38 19.52 18.48 19.43 18.48 16.92 15.49 16.92 15.38"/><polygon class="cls-28" points="16.92 15.28 19.6 18.48 19.52 18.48 16.92 15.38 16.92 15.28"/><polygon class="cls-29" points="16.92 15.18 19.69 18.48 19.6 18.48 16.92 15.28 16.92 15.18"/><polygon class="cls-30" points="16.92 15.07 19.78 18.48 19.69 18.48 16.92 15.18 16.92 15.07"/><polygon class="cls-31" points="16.92 14.97 19.87 18.48 19.78 18.48 16.92 15.07 16.92 14.97"/><polygon class="cls-32" points="16.92 14.86 19.95 18.48 19.87 18.48 16.92 14.97 16.92 14.86"/><polygon class="cls-33" points="16.92 14.76 20.04 18.48 19.95 18.48 16.92 14.86 16.92 14.76"/><polygon class="cls-34" points="16.92 14.65 20.13 18.48 20.04 18.48 16.92 14.76 16.92 14.65"/><polygon class="cls-35" points="16.92 14.55 20.22 18.48 20.13 18.48 16.92 14.65 16.92 14.55"/><polygon class="cls-36" points="16.92 14.45 20.3 18.48 20.22 18.48 16.92 14.55 16.92 14.45"/><polygon class="cls-37" points="16.92 14.34 20.39 18.48 20.3 18.48 16.92 14.45 16.92 14.34"/><polygon class="cls-38" points="16.92 14.24 20.48 18.48 20.39 18.48 16.92 14.34 16.92 14.24"/><polygon class="cls-39" points="16.92 14.13 20.57 18.48 20.48 18.48 16.92 14.24 16.92 14.13"/><polygon class="cls-40" points="16.92 14.03 20.66 18.48 20.57 18.48 16.92 14.13 16.92 14.03"/><polygon class="cls-41" points="16.92 13.92 20.74 18.48 20.66 18.48 16.92 14.03 16.92 13.92"/><polygon class="cls-42" points="16.92 13.82 20.82 18.46 20.8 18.48 20.74 18.48 16.92 13.92 16.92 13.82"/><polygon class="cls-43" points="16.92 13.71 20.87 18.42 20.82 18.46 16.92 13.82 16.92 13.71"/><polygon class="cls-44" points="16.92 13.61 20.92 18.38 20.87 18.42 16.92 13.71 16.92 13.61"/><polygon class="cls-45" points="16.92 13.51 20.97 18.34 20.92 18.38 16.92 13.61 16.92 13.51"/><polygon class="cls-46" points="16.92 13.4 21.02 18.29 20.97 18.34 16.92 13.51 16.92 13.4"/><polygon class="cls-47" points="16.92 13.3 21.08 18.25 21.02 18.29 16.92 13.4 16.92 13.3"/><polygon class="cls-48" points="16.92 13.19 21.13 18.21 21.08 18.25 16.92 13.3 16.92 13.19"/><polygon class="cls-49" points="16.92 13.09 21.18 18.16 21.13 18.21 16.92 13.19 16.92 13.09"/><polygon class="cls-50" points="16.92 12.98 21.23 18.12 21.18 18.16 16.92 13.09 16.92 12.98"/><polygon class="cls-51" points="16.92 12.88 21.28 18.08 21.23 18.12 16.92 12.98 16.92 12.88"/><polygon class="cls-52" points="16.92 12.77 21.33 18.03 21.28 18.08 16.92 12.88 16.92 12.77"/><polygon class="cls-53" points="16.92 12.67 21.39 17.99 21.33 18.03 16.92 12.77 16.92 12.67"/><polygon class="cls-54" points="16.92 12.57 21.44 17.95 21.39 17.99 16.92 12.67 16.92 12.57"/><polygon class="cls-55" points="16.92 12.46 21.49 17.9 21.44 17.95 16.92 12.57 16.92 12.46"/><polygon class="cls-56" points="16.92 12.36 21.54 17.86 21.49 17.9 16.92 12.46 16.92 12.36"/><polygon class="cls-57" points="16.92 12.25 21.59 17.82 21.54 17.86 16.92 12.36 16.92 12.25"/><polygon class="cls-58" points="16.92 12.15 21.64 17.77 21.59 17.82 16.92 12.25 16.92 12.15"/><polygon class="cls-59" points="16.92 12.04 21.69 17.73 21.64 17.77 16.92 12.15 16.92 12.04"/><polygon class="cls-60" points="16.92 11.94 21.75 17.69 21.69 17.73 16.92 12.04 16.92 11.94"/><polygon class="cls-61" points="16.92 11.83 21.8 17.64 21.75 17.69 16.92 11.94 16.92 11.83"/><polygon class="cls-62" points="16.92 11.73 21.85 17.6 21.8 17.64 16.92 11.83 16.92 11.73"/><polygon class="cls-63" points="16.92 11.63 21.9 17.56 21.85 17.6 16.92 11.73 16.92 11.63"/><polygon class="cls-64" points="16.92 11.52 21.95 17.52 21.9 17.56 16.92 11.63 16.92 11.52"/><polygon class="cls-65" points="16.92 11.42 22 17.47 21.95 17.52 16.92 11.52 16.92 11.42"/><polygon class="cls-66" points="16.92 11.31 22.05 17.43 22 17.47 16.92 11.42 16.92 11.31"/><polygon class="cls-67" points="16.92 11.21 22.11 17.39 22.05 17.43 16.92 11.31 16.92 11.21"/><polygon class="cls-68" points="16.92 11.1 22.16 17.34 22.11 17.39 16.92 11.21 16.92 11.1"/><polygon class="cls-69" points="16.92 11 22.21 17.3 22.16 17.34 16.92 11.1 16.92 11"/><polygon class="cls-70" points="16.92 10.89 22.26 17.26 22.21 17.3 16.92 11 16.92 10.89"/><polygon class="cls-71" points="16.92 10.79 22.31 17.21 22.26 17.26 16.92 10.89 16.92 10.79"/><polygon class="cls-72" points="16.92 10.69 22.36 17.17 22.31 17.21 16.92 10.79 16.92 10.69"/><polygon class="cls-73" points="16.92 10.58 22.41 17.13 22.36 17.17 16.92 10.69 16.92 10.58"/><polygon class="cls-74" points="16.92 10.48 22.46 17.08 22.41 17.13 16.92 10.58 16.92 10.48"/><polygon class="cls-75" points="16.92 10.37 22.52 17.04 22.46 17.08 16.92 10.48 16.92 10.37"/><polygon class="cls-76" points="16.92 10.27 22.57 17 22.52 17.04 16.92 10.37 16.92 10.27"/><polygon class="cls-77" points="16.92 10.16 22.62 16.95 22.57 17 16.92 10.27 16.92 10.16"/><polygon class="cls-78" points="16.92 10.06 22.67 16.91 22.62 16.95 16.92 10.16 16.92 10.06"/><polygon class="cls-79" points="16.92 9.96 22.72 16.87 22.67 16.91 16.92 10.06 16.92 9.96"/><polygon class="cls-80" points="16.92 9.85 22.77 16.82 22.72 16.87 16.92 9.96 16.92 9.85"/><polygon class="cls-81" points="16.92 9.75 22.82 16.78 22.77 16.82 16.92 9.85 16.92 9.75"/><polygon class="cls-82" points="16.92 9.64 22.88 16.74 22.82 16.78 16.92 9.75 16.92 9.64"/><polygon class="cls-83" points="16.92 9.54 22.93 16.7 22.88 16.74 16.92 9.64 16.92 9.54"/><polygon class="cls-84" points="16.92 9.43 22.98 16.65 22.93 16.7 16.92 9.54 16.92 9.43"/><polygon class="cls-85" points="16.92 9.33 23.03 16.61 22.98 16.65 16.92 9.43 16.92 9.33"/><polygon class="cls-86" points="16.92 9.22 23.08 16.57 23.03 16.61 16.92 9.33 16.92 9.22"/><polygon class="cls-87" points="16.92 9.18 16.95 9.16 23.13 16.52 23.08 16.57 16.92 9.22 16.92 9.18"/><rect class="cls-88" x="954.94" y="538.33" width="0.07" height="9.62" transform="translate(-1060.61 210.59) rotate(-40)"/><rect class="cls-89" x="954.99" y="538.29" width="0.07" height="9.62" transform="translate(-1060.57 210.62) rotate(-40)"/><rect class="cls-90" x="955.05" y="538.25" width="0.07" height="9.62" transform="translate(-1060.53 210.64) rotate(-40)"/><rect class="cls-91" x="955.1" y="538.2" width="0.07" height="9.62" transform="translate(-1060.49 210.66) rotate(-40)"/><rect class="cls-92" x="955.15" y="538.16" width="0.07" height="9.62" transform="translate(-1060.45 210.69) rotate(-40)"/><rect class="cls-93" x="955.2" y="538.12" width="0.07" height="9.62" transform="translate(-1060.41 210.71) rotate(-40)"/><rect class="cls-94" x="955.25" y="538.07" width="0.07" height="9.62" transform="translate(-1060.37 210.73) rotate(-40)"/><rect class="cls-95" x="955.3" y="538.03" width="0.07" height="9.62" transform="translate(-1060.33 210.76) rotate(-40)"/><rect class="cls-96" x="955.35" y="537.99" width="0.07" height="9.62" transform="translate(-1060.29 210.78) rotate(-40)"/><rect class="cls-97" x="955.41" y="537.95" width="0.07" height="9.62" transform="translate(-1060.25 210.8) rotate(-40)"/><rect class="cls-98" x="955.46" y="537.9" width="0.07" height="9.62" transform="translate(-1060.21 210.82) rotate(-40)"/><rect class="cls-99" x="955.51" y="537.86" width="0.07" height="9.62" transform="translate(-1060.17 210.85) rotate(-40)"/><rect class="cls-100" x="955.56" y="537.82" width="0.07" height="9.62" transform="translate(-1060.13 210.87) rotate(-40)"/><rect class="cls-101" x="955.61" y="537.77" width="0.07" height="9.62" transform="translate(-1060.09 210.89) rotate(-40)"/><rect class="cls-102" x="955.66" y="537.73" width="0.07" height="9.62" transform="translate(-1060.05 210.92) rotate(-40)"/><rect class="cls-103" x="955.71" y="537.69" width="0.07" height="9.62" transform="translate(-1060.01 210.94) rotate(-40)"/><rect class="cls-104" x="955.77" y="537.64" width="0.07" height="9.62" transform="translate(-1059.97 210.96) rotate(-40)"/><rect class="cls-105" x="955.82" y="537.6" width="0.07" height="9.62" transform="translate(-1059.93 210.98) rotate(-40)"/><rect class="cls-106" x="955.87" y="537.56" width="0.07" height="9.62" transform="translate(-1059.9 211.01) rotate(-40)"/><rect class="cls-107" x="955.92" y="537.51" width="0.07" height="9.62" transform="translate(-1059.86 211.03) rotate(-40)"/><rect class="cls-108" x="955.97" y="537.47" width="0.07" height="9.62" transform="translate(-1059.82 211.05) rotate(-40)"/><rect class="cls-109" x="956.02" y="537.43" width="0.07" height="9.62" transform="translate(-1059.78 211.07) rotate(-40)"/><rect class="cls-110" x="956.07" y="537.38" width="0.07" height="9.62" transform="translate(-1059.74 211.1) rotate(-40)"/><rect class="cls-111" x="956.13" y="537.34" width="0.07" height="9.62" transform="translate(-1059.7 211.12) rotate(-40)"/><rect class="cls-112" x="956.18" y="537.3" width="0.07" height="9.62" transform="translate(-1059.66 211.14) rotate(-40)"/><rect class="cls-113" x="956.23" y="537.25" width="0.07" height="9.62" transform="translate(-1059.62 211.17) rotate(-40)"/><rect class="cls-114" x="956.28" y="537.21" width="0.07" height="9.62" transform="translate(-1059.58 211.19) rotate(-40)"/><rect class="cls-115" x="956.33" y="537.17" width="0.07" height="9.62" transform="translate(-1059.54 211.21) rotate(-40)"/><rect class="cls-116" x="956.38" y="537.13" width="0.07" height="9.62" transform="translate(-1059.5 211.24) rotate(-40)"/><rect class="cls-117" x="956.43" y="537.08" width="0.07" height="9.62" transform="translate(-1059.46 211.26) rotate(-40)"/><rect class="cls-118" x="956.49" y="537.04" width="0.07" height="9.62" transform="translate(-1059.42 211.28) rotate(-40)"/><rect class="cls-119" x="956.54" y="537" width="0.07" height="9.62" transform="translate(-1059.38 211.3) rotate(-40)"/><rect class="cls-120" x="956.59" y="536.95" width="0.07" height="9.62" transform="translate(-1059.34 211.33) rotate(-40)"/><rect class="cls-121" x="956.64" y="536.91" width="0.07" height="9.62" transform="translate(-1059.3 211.35) rotate(-40)"/><rect class="cls-122" x="956.69" y="536.87" width="0.07" height="9.62" transform="translate(-1059.26 211.37) rotate(-40)"/><rect class="cls-123" x="956.74" y="536.82" width="0.07" height="9.62" transform="translate(-1059.22 211.4) rotate(-40)"/><rect class="cls-124" x="956.79" y="536.78" width="0.07" height="9.62" transform="translate(-1059.18 211.42) rotate(-40)"/><rect class="cls-125" x="956.85" y="536.74" width="0.07" height="9.62" transform="translate(-1059.14 211.44) rotate(-40)"/><rect class="cls-126" x="956.9" y="536.69" width="0.07" height="9.62" transform="translate(-1059.1 211.47) rotate(-40)"/><rect class="cls-127" x="956.95" y="536.65" width="0.07" height="9.62" transform="translate(-1059.06 211.49) rotate(-40)"/><rect class="cls-128" x="957" y="536.61" width="0.07" height="9.62" transform="translate(-1059.02 211.51) rotate(-40)"/><rect class="cls-129" x="957.05" y="536.56" width="0.07" height="9.62" transform="translate(-1058.98 211.53) rotate(-40)"/><rect class="cls-130" x="957.1" y="536.52" width="0.07" height="9.62" transform="translate(-1058.94 211.56) rotate(-40)"/><rect class="cls-131" x="957.15" y="536.48" width="0.07" height="9.62" transform="translate(-1058.9 211.58) rotate(-40)"/><rect class="cls-132" x="957.21" y="536.44" width="0.07" height="9.62" transform="translate(-1058.86 211.6) rotate(-40)"/><rect class="cls-133" x="957.26" y="536.39" width="0.07" height="9.62" transform="translate(-1058.82 211.63) rotate(-40)"/><rect class="cls-134" x="957.31" y="536.35" width="0.07" height="9.62" transform="translate(-1058.78 211.65) rotate(-40)"/><rect class="cls-135" x="957.36" y="536.31" width="0.07" height="9.62" transform="translate(-1058.74 211.67) rotate(-40)"/><rect class="cls-136" x="957.41" y="536.26" width="0.07" height="9.62" transform="translate(-1058.7 211.7) rotate(-40)"/><rect class="cls-137" x="957.46" y="536.22" width="0.07" height="9.62" transform="translate(-1058.66 211.72) rotate(-40)"/><rect class="cls-138" x="957.51" y="536.18" width="0.07" height="9.62" transform="translate(-1058.62 211.74) rotate(-40)"/><rect class="cls-139" x="957.56" y="536.13" width="0.07" height="9.62" transform="translate(-1058.58 211.76) rotate(-40)"/><rect class="cls-140" x="957.62" y="536.09" width="0.07" height="9.62" transform="translate(-1058.54 211.79) rotate(-40)"/><rect class="cls-141" x="957.67" y="536.05" width="0.07" height="9.62" transform="translate(-1058.5 211.81) rotate(-40)"/><rect class="cls-142" x="957.72" y="536" width="0.07" height="9.62" transform="translate(-1058.46 211.83) rotate(-40)"/><rect class="cls-143" x="957.77" y="535.96" width="0.07" height="9.62" transform="translate(-1058.42 211.86) rotate(-40)"/><rect class="cls-144" x="957.82" y="535.92" width="0.07" height="9.62" transform="translate(-1058.38 211.88) rotate(-40)"/><rect class="cls-145" x="957.87" y="535.87" width="0.07" height="9.62" transform="translate(-1058.34 211.9) rotate(-40)"/><rect class="cls-146" x="957.92" y="535.83" width="0.07" height="9.62" transform="translate(-1058.3 211.92) rotate(-40)"/><rect class="cls-147" x="957.98" y="535.79" width="0.07" height="9.62" transform="translate(-1058.26 211.95) rotate(-40)"/><rect class="cls-148" x="958.03" y="535.74" width="0.07" height="9.62" transform="translate(-1058.22 211.97) rotate(-40)"/><rect class="cls-149" x="958.08" y="535.7" width="0.07" height="9.62" transform="translate(-1058.19 211.99) rotate(-40)"/><rect class="cls-150" x="958.13" y="535.66" width="0.07" height="9.62" transform="translate(-1058.15 212.02) rotate(-40)"/><rect class="cls-151" x="958.18" y="535.62" width="0.07" height="9.62" transform="translate(-1058.11 212.04) rotate(-40)"/><rect class="cls-152" x="958.23" y="535.57" width="0.07" height="9.62" transform="translate(-1058.07 212.06) rotate(-40)"/><rect class="cls-153" x="958.28" y="535.53" width="0.07" height="9.62" transform="translate(-1058.03 212.08) rotate(-40)"/><rect class="cls-154" x="958.34" y="535.49" width="0.07" height="9.62" transform="translate(-1057.99 212.11) rotate(-40)"/><rect class="cls-155" x="958.39" y="535.44" width="0.07" height="9.62" transform="translate(-1057.95 212.13) rotate(-40)"/><rect class="cls-156" x="958.44" y="535.4" width="0.07" height="9.62" transform="translate(-1057.91 212.15) rotate(-40)"/><rect class="cls-157" x="958.49" y="535.36" width="0.07" height="9.62" transform="translate(-1057.87 212.18) rotate(-40)"/><rect class="cls-158" x="958.54" y="535.31" width="0.07" height="9.62" transform="translate(-1057.83 212.2) rotate(-40)"/><rect class="cls-159" x="958.59" y="535.27" width="0.07" height="9.62" transform="translate(-1057.79 212.22) rotate(-40)"/><rect class="cls-160" x="958.64" y="535.23" width="0.07" height="9.62" transform="translate(-1057.75 212.25) rotate(-40)"/><rect class="cls-161" x="958.7" y="535.18" width="0.07" height="9.62" transform="translate(-1057.71 212.27) rotate(-40)"/><rect class="cls-162" x="958.75" y="535.14" width="0.07" height="9.62" transform="translate(-1057.67 212.29) rotate(-40)"/><rect class="cls-163" x="958.8" y="535.1" width="0.07" height="9.62" transform="translate(-1057.63 212.31) rotate(-40)"/><rect class="cls-164" x="958.85" y="535.05" width="0.07" height="9.62" transform="translate(-1057.59 212.34) rotate(-40)"/><rect class="cls-165" x="958.9" y="535.01" width="0.07" height="9.62" transform="translate(-1057.55 212.36) rotate(-40)"/><rect class="cls-166" x="958.95" y="534.97" width="0.07" height="9.62" transform="translate(-1057.51 212.38) rotate(-40)"/><rect class="cls-167" x="959" y="534.92" width="0.07" height="9.62" transform="translate(-1057.47 212.41) rotate(-40)"/><rect class="cls-168" x="959.06" y="534.88" width="0.07" height="9.62" transform="translate(-1057.43 212.43) rotate(-40)"/><rect class="cls-169" x="959.11" y="534.84" width="0.07" height="9.62" transform="translate(-1057.39 212.45) rotate(-40)"/><rect class="cls-170" x="959.16" y="534.8" width="0.07" height="9.62" transform="translate(-1057.35 212.48) rotate(-40)"/><rect class="cls-171" x="959.21" y="534.75" width="0.07" height="9.62" transform="translate(-1057.31 212.5) rotate(-40)"/><rect class="cls-172" x="959.26" y="534.71" width="0.07" height="9.62" transform="translate(-1057.27 212.52) rotate(-40)"/><rect class="cls-173" x="959.31" y="534.67" width="0.07" height="9.62" transform="translate(-1057.23 212.54) rotate(-40)"/><rect class="cls-174" x="959.36" y="534.62" width="0.07" height="9.62" transform="translate(-1057.19 212.57) rotate(-40)"/><rect class="cls-175" x="959.42" y="534.58" width="0.07" height="9.62" transform="translate(-1057.15 212.59) rotate(-40)"/><rect class="cls-176" x="959.47" y="534.54" width="0.07" height="9.62" transform="translate(-1057.11 212.61) rotate(-40)"/><rect class="cls-177" x="959.52" y="534.49" width="0.07" height="9.62" transform="translate(-1057.07 212.64) rotate(-40)"/><rect class="cls-178" x="959.57" y="534.45" width="0.07" height="9.62" transform="translate(-1057.03 212.66) rotate(-40)"/><rect class="cls-179" x="959.62" y="534.41" width="0.07" height="9.62" transform="translate(-1056.99 212.68) rotate(-40)"/><rect class="cls-180" x="959.67" y="534.36" width="0.07" height="9.62" transform="translate(-1056.95 212.7) rotate(-40)"/><rect class="cls-181" x="959.72" y="534.32" width="0.07" height="9.62" transform="translate(-1056.91 212.73) rotate(-40)"/><rect class="cls-182" x="959.78" y="534.28" width="0.07" height="9.62" transform="translate(-1056.87 212.75) rotate(-40)"/><rect class="cls-183" x="959.83" y="534.23" width="0.07" height="9.62" transform="translate(-1056.83 212.77) rotate(-40)"/><rect class="cls-184" x="959.88" y="534.19" width="0.07" height="9.62" transform="translate(-1056.79 212.8) rotate(-40)"/><rect class="cls-185" x="959.93" y="534.15" width="0.07" height="9.62" transform="translate(-1056.75 212.82) rotate(-40)"/><rect class="cls-186" x="959.98" y="534.11" width="0.07" height="9.62" transform="translate(-1056.71 212.84) rotate(-40)"/><rect class="cls-187" x="960.03" y="534.06" width="0.07" height="9.62" transform="translate(-1056.67 212.87) rotate(-40)"/><rect class="cls-188" x="960.08" y="534.02" width="0.07" height="9.62" transform="translate(-1056.63 212.89) rotate(-40)"/><rect class="cls-189" x="960.14" y="533.98" width="0.07" height="9.62" transform="translate(-1056.59 212.91) rotate(-40)"/><rect class="cls-190" x="960.19" y="533.93" width="0.07" height="9.62" transform="translate(-1056.55 212.93) rotate(-40)"/><rect class="cls-191" x="960.24" y="533.89" width="0.07" height="9.62" transform="translate(-1056.51 212.96) rotate(-40)"/><rect class="cls-192" x="960.29" y="533.85" width="0.07" height="9.62" transform="translate(-1056.47 212.98) rotate(-40)"/><rect class="cls-193" x="960.34" y="533.8" width="0.07" height="9.62" transform="translate(-1056.44 213.01) rotate(-40)"/><rect class="cls-194" x="960.39" y="533.76" width="0.07" height="9.62" transform="translate(-1056.4 213.02) rotate(-40)"/><rect class="cls-195" x="960.44" y="533.72" width="0.07" height="9.62" transform="translate(-1056.36 213.05) rotate(-40)"/><rect class="cls-196" x="960.5" y="533.67" width="0.07" height="9.62" transform="translate(-1056.32 213.07) rotate(-40)"/><rect class="cls-197" x="960.55" y="533.63" width="0.07" height="9.62" transform="translate(-1056.28 213.09) rotate(-40)"/><rect class="cls-198" x="960.6" y="533.59" width="0.07" height="9.62" transform="translate(-1056.24 213.12) rotate(-40)"/><rect class="cls-199" x="960.65" y="533.54" width="0.07" height="9.62" transform="translate(-1056.2 213.14) rotate(-40)"/><polygon class="cls-200" points="22.71 4.32 22.76 4.28 28.93 11.63 28.93 11.66 28.89 11.69 22.71 4.32"/><polygon class="cls-201" points="22.76 4.28 22.81 4.24 28.93 11.52 28.93 11.63 22.76 4.28"/><polygon class="cls-202" points="22.81 4.24 22.86 4.19 28.93 11.42 28.93 11.52 22.81 4.24"/><polygon class="cls-203" points="22.86 4.19 22.92 4.15 28.93 11.31 28.93 11.42 22.86 4.19"/><polygon class="cls-204" points="22.92 4.15 22.97 4.11 28.93 11.21 28.93 11.31 22.92 4.15"/><polygon class="cls-205" points="22.97 4.11 23.02 4.06 28.93 11.1 28.93 11.21 22.97 4.11"/><polygon class="cls-206" points="23.02 4.06 23.07 4.02 28.93 11 28.93 11.1 23.02 4.06"/><polygon class="cls-207" points="23.07 4.02 23.12 3.98 28.93 10.89 28.93 11 23.07 4.02"/><polygon class="cls-208" points="23.12 3.98 23.17 3.94 28.93 10.79 28.93 10.89 23.12 3.98"/><polygon class="cls-209" points="23.17 3.94 23.23 3.89 28.93 10.69 28.93 10.79 23.17 3.94"/><polygon class="cls-210" points="23.23 3.89 23.28 3.85 28.93 10.58 28.93 10.69 23.23 3.89"/><polygon class="cls-211" points="23.28 3.85 23.33 3.81 28.93 10.48 28.93 10.58 23.28 3.85"/><polygon class="cls-212" points="23.33 3.81 23.38 3.76 28.93 10.37 28.93 10.48 23.33 3.81"/><polygon class="cls-213" points="23.38 3.76 23.43 3.72 28.93 10.27 28.93 10.37 23.38 3.76"/><polygon class="cls-214" points="23.43 3.72 23.48 3.68 28.93 10.16 28.93 10.27 23.43 3.72"/><polygon class="cls-215" points="23.48 3.68 23.53 3.63 28.93 10.06 28.93 10.16 23.48 3.68"/><polygon class="cls-216" points="23.53 3.63 23.59 3.59 28.93 9.95 28.93 10.06 23.53 3.63"/><polygon class="cls-217" points="23.59 3.59 23.64 3.55 28.93 9.85 28.93 9.95 23.59 3.59"/><polygon class="cls-218" points="23.64 3.55 23.69 3.5 28.93 9.74 28.93 9.85 23.64 3.55"/><polygon class="cls-219" points="23.69 3.5 23.74 3.46 28.93 9.64 28.93 9.74 23.69 3.5"/><polygon class="cls-220" points="23.74 3.46 23.79 3.42 28.93 9.54 28.93 9.64 23.74 3.46"/><polygon class="cls-221" points="23.79 3.42 23.84 3.37 28.93 9.43 28.93 9.54 23.79 3.42"/><polygon class="cls-222" points="23.84 3.37 23.89 3.33 28.93 9.33 28.93 9.43 23.84 3.37"/><polygon class="cls-223" points="23.89 3.33 23.95 3.29 28.93 9.22 28.93 9.33 23.89 3.33"/><polygon class="cls-224" points="23.95 3.29 24 3.24 28.93 9.12 28.93 9.22 23.95 3.29"/><polygon class="cls-225" points="24 3.24 24.05 3.2 28.93 9.01 28.93 9.12 24 3.24"/><polygon class="cls-226" points="24.05 3.2 24.1 3.16 28.93 8.91 28.93 9.01 24.05 3.2"/><polygon class="cls-226" points="24.1 3.16 24.47 2.85 28.93 2.85 28.93 8.91 24.1 3.16"/></g><g class="cls-229"><rect class="cls-2" x="20.78" y="12.94" width="1.55" height="5.66"/><rect class="cls-2" x="22.33" y="12.94" width="0.03" height="5.66"/><rect class="cls-4" x="22.36" y="12.94" width="0.03" height="5.66"/><rect class="cls-5" x="22.39" y="12.94" width="0.03" height="5.66"/><rect class="cls-6" x="22.42" y="12.94" width="0.03" height="5.66"/><rect class="cls-7" x="22.45" y="12.94" width="0.03" height="5.66"/><rect class="cls-8" x="22.48" y="12.94" width="0.03" height="5.66"/><rect class="cls-9" x="22.51" y="12.94" width="0.03" height="5.66"/><rect class="cls-10" x="22.53" y="12.94" width="0.03" height="5.66"/><rect class="cls-11" x="22.56" y="12.94" width="0.03" height="5.66"/><rect class="cls-12" x="22.59" y="12.94" width="0.03" height="5.66"/><rect class="cls-13" x="22.62" y="12.94" width="0.03" height="5.66"/><rect class="cls-14" x="22.65" y="12.94" width="0.03" height="5.66"/><rect class="cls-15" x="22.68" y="12.94" width="0.03" height="5.66"/><rect class="cls-16" x="22.71" y="12.94" width="0.03" height="5.66"/><rect class="cls-17" x="22.73" y="12.94" width="0.03" height="5.66"/><rect class="cls-18" x="22.76" y="12.94" width="0.03" height="5.66"/><rect class="cls-19" x="22.79" y="12.94" width="0.03" height="5.66"/><rect class="cls-20" x="22.82" y="12.94" width="0.03" height="5.66"/><rect class="cls-21" x="22.85" y="12.94" width="0.03" height="5.66"/><rect class="cls-22" x="22.88" y="12.94" width="0.03" height="5.66"/><rect class="cls-23" x="22.91" y="12.94" width="0.03" height="5.66"/><rect class="cls-24" x="22.93" y="12.94" width="0.03" height="5.66"/><rect class="cls-25" x="22.96" y="12.94" width="0.03" height="5.66"/><rect class="cls-26" x="22.99" y="12.94" width="0.03" height="5.66"/><rect class="cls-27" x="23.02" y="12.94" width="0.03" height="5.66"/><rect class="cls-28" x="23.05" y="12.94" width="0.03" height="5.66"/><rect class="cls-29" x="23.08" y="12.94" width="0.03" height="5.66"/><rect class="cls-30" x="23.11" y="12.94" width="0.03" height="5.66"/><rect class="cls-31" x="23.13" y="12.94" width="0.03" height="5.66"/><rect class="cls-32" x="23.16" y="12.94" width="0.03" height="5.66"/><rect class="cls-33" x="23.19" y="12.94" width="0.03" height="5.66"/><rect class="cls-34" x="23.22" y="12.94" width="0.03" height="5.66"/><rect class="cls-35" x="23.25" y="12.94" width="0.03" height="5.66"/><rect class="cls-36" x="23.28" y="12.94" width="0.03" height="5.66"/><rect class="cls-37" x="23.3" y="12.94" width="0.03" height="5.66"/><rect class="cls-38" x="23.33" y="12.94" width="0.03" height="5.66"/><rect class="cls-39" x="23.36" y="12.94" width="0.03" height="5.66"/><rect class="cls-40" x="23.39" y="12.94" width="0.03" height="5.66"/><rect class="cls-41" x="23.42" y="12.94" width="0.03" height="5.66"/><rect class="cls-42" x="23.45" y="12.94" width="0.03" height="5.66"/><rect class="cls-43" x="23.48" y="12.94" width="0.03" height="5.66"/><rect class="cls-44" x="23.5" y="12.94" width="0.03" height="5.66"/><rect class="cls-45" x="23.53" y="12.94" width="0.03" height="5.66"/><rect class="cls-46" x="23.56" y="12.94" width="0.03" height="5.66"/><rect class="cls-47" x="23.59" y="12.94" width="0.03" height="5.66"/><rect class="cls-48" x="23.62" y="12.94" width="0.03" height="5.66"/><rect class="cls-49" x="23.65" y="12.94" width="0.03" height="5.66"/><rect class="cls-50" x="23.68" y="12.94" width="0.03" height="5.66"/><rect class="cls-51" x="23.7" y="12.94" width="0.03" height="5.66"/><rect class="cls-52" x="23.73" y="12.94" width="0.03" height="5.66"/><rect class="cls-53" x="23.76" y="12.94" width="0.03" height="5.66"/><rect class="cls-54" x="23.79" y="12.94" width="0.03" height="5.66"/><rect class="cls-55" x="23.82" y="12.94" width="0.03" height="5.66"/><rect class="cls-56" x="23.85" y="12.94" width="0.03" height="5.66"/><rect class="cls-57" x="23.88" y="12.94" width="0.03" height="5.66"/><rect class="cls-58" x="23.9" y="12.94" width="0.03" height="5.66"/><rect class="cls-59" x="23.93" y="12.94" width="0.03" height="5.66"/><rect class="cls-60" x="23.96" y="12.94" width="0.03" height="5.66"/><rect class="cls-61" x="23.99" y="12.94" width="0.03" height="5.66"/><rect class="cls-62" x="24.02" y="12.94" width="0.03" height="5.66"/><rect class="cls-63" x="24.05" y="12.94" width="0.03" height="5.66"/><rect class="cls-64" x="24.08" y="12.94" width="0.03" height="5.66"/><rect class="cls-65" x="24.1" y="12.94" width="0.03" height="5.66"/><rect class="cls-66" x="24.13" y="12.94" width="0.03" height="5.66"/><rect class="cls-67" x="24.16" y="12.94" width="0.03" height="5.66"/><rect class="cls-68" x="24.19" y="12.94" width="0.03" height="5.66"/><rect class="cls-69" x="24.22" y="12.94" width="0.03" height="5.66"/><rect class="cls-70" x="24.25" y="12.94" width="0.03" height="5.66"/><rect class="cls-71" x="24.28" y="12.94" width="0.03" height="5.66"/><rect class="cls-72" x="24.3" y="12.94" width="0.03" height="5.66"/><rect class="cls-73" x="24.33" y="12.94" width="0.03" height="5.66"/><rect class="cls-74" x="24.36" y="12.94" width="0.03" height="5.66"/><rect class="cls-75" x="24.39" y="12.94" width="0.03" height="5.66"/><rect class="cls-76" x="24.42" y="12.94" width="0.03" height="5.66"/><rect class="cls-77" x="24.45" y="12.94" width="0.03" height="5.66"/><rect class="cls-78" x="24.47" y="12.94" width="0.03" height="5.66"/><rect class="cls-79" x="24.5" y="12.94" width="0.03" height="5.66"/><rect class="cls-80" x="24.53" y="12.94" width="0.03" height="5.66"/><rect class="cls-81" x="24.56" y="12.94" width="0.03" height="5.66"/><rect class="cls-82" x="24.59" y="12.94" width="0.03" height="5.66"/><rect class="cls-83" x="24.62" y="12.94" width="0.03" height="5.66"/><rect class="cls-84" x="24.65" y="12.94" width="0.03" height="5.66"/><rect class="cls-85" x="24.67" y="12.94" width="0.03" height="5.66"/><rect class="cls-86" x="24.7" y="12.94" width="0.03" height="5.66"/><rect class="cls-87" x="24.73" y="12.94" width="0.03" height="5.66"/><rect class="cls-88" x="24.76" y="12.94" width="0.03" height="5.66"/><rect class="cls-89" x="24.79" y="12.94" width="0.03" height="5.66"/><rect class="cls-90" x="24.82" y="12.94" width="0.03" height="5.66"/><rect class="cls-91" x="24.85" y="12.94" width="0.03" height="5.66"/><rect class="cls-92" x="24.87" y="12.94" width="0.03" height="5.66"/><rect class="cls-93" x="24.9" y="12.94" width="0.03" height="5.66"/><rect class="cls-94" x="24.93" y="12.94" width="0.03" height="5.66"/><rect class="cls-95" x="24.96" y="12.94" width="0.03" height="5.66"/><rect class="cls-96" x="24.99" y="12.94" width="0.03" height="5.66"/><rect class="cls-97" x="25.02" y="12.94" width="0.03" height="5.66"/><rect class="cls-98" x="25.05" y="12.94" width="0.03" height="5.66"/><rect class="cls-99" x="25.07" y="12.94" width="0.03" height="5.66"/><rect class="cls-100" x="25.1" y="12.94" width="0.03" height="5.66"/><rect class="cls-101" x="25.13" y="12.94" width="0.03" height="5.66"/><rect class="cls-102" x="25.16" y="12.94" width="0.03" height="5.66"/><rect class="cls-103" x="25.19" y="12.94" width="0.03" height="5.66"/><rect class="cls-104" x="25.22" y="12.94" width="0.03" height="5.66"/><rect class="cls-105" x="25.25" y="12.94" width="0.03" height="5.66"/><rect class="cls-106" x="25.27" y="12.94" width="0.03" height="5.66"/><rect class="cls-107" x="25.3" y="12.94" width="0.03" height="5.66"/><rect class="cls-108" x="25.33" y="12.94" width="0.03" height="5.66"/><rect class="cls-109" x="25.36" y="12.94" width="0.03" height="5.66"/><rect class="cls-110" x="25.39" y="12.94" width="0.03" height="5.66"/><rect class="cls-111" x="25.42" y="12.94" width="0.03" height="5.66"/><rect class="cls-112" x="25.45" y="12.94" width="0.03" height="5.66"/><rect class="cls-113" x="25.47" y="12.94" width="0.03" height="5.66"/><rect class="cls-114" x="25.5" y="12.94" width="0.03" height="5.66"/><rect class="cls-115" x="25.53" y="12.94" width="0.03" height="5.66"/><rect class="cls-116" x="25.56" y="12.94" width="0.03" height="5.66"/><rect class="cls-117" x="25.59" y="12.94" width="0.03" height="5.66"/><rect class="cls-118" x="25.62" y="12.94" width="0.03" height="5.66"/><rect class="cls-119" x="25.64" y="12.94" width="0.03" height="5.66"/><rect class="cls-120" x="25.67" y="12.94" width="0.03" height="5.66"/><rect class="cls-121" x="25.7" y="12.94" width="0.03" height="5.66"/><rect class="cls-122" x="25.73" y="12.94" width="0.03" height="5.66"/><rect class="cls-123" x="25.76" y="12.94" width="0.03" height="5.66"/><rect class="cls-124" x="25.79" y="12.94" width="0.03" height="5.66"/><rect class="cls-125" x="25.82" y="12.94" width="0.03" height="5.66"/><rect class="cls-126" x="25.84" y="12.94" width="0.03" height="5.66"/><rect class="cls-127" x="25.87" y="12.94" width="0.03" height="5.66"/><rect class="cls-128" x="25.9" y="12.94" width="0.03" height="5.66"/><rect class="cls-129" x="25.93" y="12.94" width="0.03" height="5.66"/><rect class="cls-130" x="25.96" y="12.94" width="0.03" height="5.66"/><rect class="cls-131" x="25.99" y="12.94" width="0.03" height="5.66"/><rect class="cls-132" x="26.02" y="12.94" width="0.03" height="5.66"/><rect class="cls-133" x="26.04" y="12.94" width="0.03" height="5.66"/><rect class="cls-134" x="26.07" y="12.94" width="0.03" height="5.66"/><rect class="cls-135" x="26.1" y="12.94" width="0.03" height="5.66"/><rect class="cls-136" x="26.13" y="12.94" width="0.03" height="5.66"/><rect class="cls-137" x="26.16" y="12.94" width="0.03" height="5.66"/><rect class="cls-138" x="26.19" y="12.94" width="0.03" height="5.66"/><rect class="cls-139" x="26.22" y="12.94" width="0.03" height="5.66"/><rect class="cls-140" x="26.24" y="12.94" width="0.03" height="5.66"/><rect class="cls-141" x="26.27" y="12.94" width="0.03" height="5.66"/><rect class="cls-142" x="26.3" y="12.94" width="0.03" height="5.66"/><rect class="cls-143" x="26.33" y="12.94" width="0.03" height="5.66"/><rect class="cls-144" x="26.36" y="12.94" width="0.03" height="5.66"/><rect class="cls-145" x="26.39" y="12.94" width="0.03" height="5.66"/><rect class="cls-146" x="26.42" y="12.94" width="0.03" height="5.66"/><rect class="cls-147" x="26.44" y="12.94" width="0.03" height="5.66"/><rect class="cls-148" x="26.47" y="12.94" width="0.03" height="5.66"/><rect class="cls-149" x="26.5" y="12.94" width="0.03" height="5.66"/><rect class="cls-150" x="26.53" y="12.94" width="0.03" height="5.66"/><rect class="cls-151" x="26.56" y="12.94" width="0.03" height="5.66"/><rect class="cls-152" x="26.59" y="12.94" width="0.03" height="5.66"/><rect class="cls-153" x="26.62" y="12.94" width="0.03" height="5.66"/><rect class="cls-154" x="26.64" y="12.94" width="0.03" height="5.66"/><rect class="cls-155" x="26.67" y="12.94" width="0.03" height="5.66"/><rect class="cls-156" x="26.7" y="12.94" width="0.03" height="5.66"/><rect class="cls-157" x="26.73" y="12.94" width="0.03" height="5.66"/><rect class="cls-158" x="26.76" y="12.94" width="0.03" height="5.66"/><rect class="cls-159" x="26.79" y="12.94" width="0.03" height="5.66"/><rect class="cls-160" x="26.81" y="12.94" width="0.03" height="5.66"/><rect class="cls-161" x="26.84" y="12.94" width="0.03" height="5.66"/><rect class="cls-162" x="26.87" y="12.94" width="0.03" height="5.66"/><rect class="cls-163" x="26.9" y="12.94" width="0.03" height="5.66"/><rect class="cls-164" x="26.93" y="12.94" width="0.03" height="5.66"/><rect class="cls-165" x="26.96" y="12.94" width="0.03" height="5.66"/><rect class="cls-166" x="26.99" y="12.94" width="0.03" height="5.66"/><rect class="cls-167" x="27.01" y="12.94" width="0.03" height="5.66"/><rect class="cls-168" x="27.04" y="12.94" width="0.03" height="5.66"/><rect class="cls-169" x="27.07" y="12.94" width="0.03" height="5.66"/><rect class="cls-170" x="27.1" y="12.94" width="0.03" height="5.66"/><rect class="cls-171" x="27.13" y="12.94" width="0.03" height="5.66"/><rect class="cls-172" x="27.16" y="12.94" width="0.03" height="5.66"/><rect class="cls-173" x="27.19" y="12.94" width="0.03" height="5.66"/><rect class="cls-174" x="27.21" y="12.94" width="0.03" height="5.66"/><rect class="cls-175" x="27.24" y="12.94" width="0.03" height="5.66"/><rect class="cls-176" x="27.27" y="12.94" width="0.03" height="5.66"/><rect class="cls-177" x="27.3" y="12.94" width="0.03" height="5.66"/><rect class="cls-178" x="27.33" y="12.94" width="0.03" height="5.66"/><rect class="cls-179" x="27.36" y="12.94" width="0.03" height="5.66"/><rect class="cls-180" x="27.39" y="12.94" width="0.03" height="5.66"/><rect class="cls-181" x="27.41" y="12.94" width="0.03" height="5.66"/><rect class="cls-182" x="27.44" y="12.94" width="0.03" height="5.66"/><rect class="cls-183" x="27.47" y="12.94" width="0.03" height="5.66"/><rect class="cls-184" x="27.5" y="12.94" width="0.03" height="5.66"/><rect class="cls-185" x="27.53" y="12.94" width="0.03" height="5.66"/><rect class="cls-186" x="27.56" y="12.94" width="0.03" height="5.66"/><rect class="cls-187" x="27.59" y="12.94" width="0.03" height="5.66"/><rect class="cls-188" x="27.61" y="12.94" width="0.03" height="5.66"/><rect class="cls-189" x="27.64" y="12.94" width="0.03" height="5.66"/><rect class="cls-190" x="27.67" y="12.94" width="0.03" height="5.66"/><rect class="cls-191" x="27.7" y="12.94" width="0.03" height="5.66"/><rect class="cls-192" x="27.73" y="12.94" width="0.03" height="5.66"/><rect class="cls-193" x="27.76" y="12.94" width="0.03" height="5.66"/><rect class="cls-194" x="27.79" y="12.94" width="0.03" height="5.66"/><rect class="cls-195" x="27.81" y="12.94" width="0.03" height="5.66"/><rect class="cls-196" x="27.84" y="12.94" width="0.03" height="5.66"/><rect class="cls-197" x="27.87" y="12.94" width="0.03" height="5.66"/><rect class="cls-198" x="27.9" y="12.94" width="0.03" height="5.66"/><rect class="cls-199" x="27.93" y="12.94" width="0.03" height="5.66"/><rect class="cls-200" x="27.96" y="12.94" width="0.03" height="5.66"/><rect class="cls-201" x="27.99" y="12.94" width="0.03" height="5.66"/><rect class="cls-202" x="28.01" y="12.94" width="0.03" height="5.66"/><rect class="cls-203" x="28.04" y="12.94" width="0.03" height="5.66"/><rect class="cls-204" x="28.07" y="12.94" width="0.03" height="5.66"/><rect class="cls-205" x="28.1" y="12.94" width="0.03" height="5.66"/><rect class="cls-206" x="28.13" y="12.94" width="0.03" height="5.66"/><rect class="cls-207" x="28.16" y="12.94" width="0.03" height="5.66"/><rect class="cls-208" x="28.18" y="12.94" width="0.03" height="5.66"/><rect class="cls-209" x="28.21" y="12.94" width="0.03" height="5.66"/><rect class="cls-210" x="28.24" y="12.94" width="0.03" height="5.66"/><rect class="cls-211" x="28.27" y="12.94" width="0.03" height="5.66"/><rect class="cls-212" x="28.3" y="12.94" width="0.03" height="5.66"/><rect class="cls-213" x="28.33" y="12.94" width="0.03" height="5.66"/><rect class="cls-214" x="28.36" y="12.94" width="0.03" height="5.66"/><rect class="cls-215" x="28.38" y="12.94" width="0.03" height="5.66"/><rect class="cls-216" x="28.41" y="12.94" width="0.03" height="5.66"/><rect class="cls-217" x="28.44" y="12.94" width="0.03" height="5.66"/><rect class="cls-218" x="28.47" y="12.94" width="0.03" height="5.66"/><rect class="cls-219" x="28.5" y="12.94" width="0.03" height="5.66"/><rect class="cls-220" x="28.53" y="12.94" width="0.03" height="5.66"/><rect class="cls-221" x="28.56" y="12.94" width="0.03" height="5.66"/><rect class="cls-222" x="28.58" y="12.94" width="0.03" height="5.66"/><rect class="cls-223" x="28.61" y="12.94" width="0.03" height="5.66"/><rect class="cls-224" x="28.64" y="12.94" width="0.03" height="5.66"/><rect class="cls-225" x="28.67" y="12.94" width="0.03" height="5.66"/><rect class="cls-226" x="28.7" y="12.94" width="0.03" height="5.66"/><path class="cls-226" d="M963.63,548.93v0Z" transform="translate(-934.91 -530.32)"/></g><g class="cls-230"><path class="cls-2" d="M954.25,530.32v0Z" transform="translate(-934.91 -530.32)"/><rect class="cls-2" x="19.34" width="0.03" height="8.37"/><rect class="cls-4" x="19.37" width="0.03" height="8.37"/><rect class="cls-5" x="19.4" width="0.03" height="8.37"/><rect class="cls-6" x="19.43" width="0.03" height="8.37"/><rect class="cls-7" x="19.46" width="0.03" height="8.37"/><rect class="cls-8" x="19.49" width="0.03" height="8.37"/><rect class="cls-9" x="19.51" width="0.03" height="8.37"/><rect class="cls-10" x="19.54" width="0.03" height="8.37"/><rect class="cls-11" x="19.57" width="0.03" height="8.37"/><rect class="cls-12" x="19.6" width="0.03" height="8.37"/><rect class="cls-13" x="19.63" width="0.03" height="8.37"/><rect class="cls-14" x="19.66" width="0.03" height="8.37"/><rect class="cls-15" x="19.69" width="0.03" height="8.37"/><rect class="cls-16" x="19.72" width="0.03" height="8.37"/><rect class="cls-17" x="19.74" width="0.03" height="8.37"/><rect class="cls-18" x="19.77" width="0.03" height="8.37"/><rect class="cls-19" x="19.8" width="0.03" height="8.37"/><rect class="cls-20" x="19.83" width="0.03" height="8.37"/><rect class="cls-21" x="19.86" width="0.03" height="8.37"/><rect class="cls-22" x="19.89" width="0.03" height="8.37"/><rect class="cls-23" x="19.92" width="0.03" height="8.37"/><rect class="cls-24" x="19.95" width="0.03" height="8.37"/><rect class="cls-25" x="19.98" width="0.03" height="8.37"/><rect class="cls-26" x="20" width="0.03" height="8.37"/><rect class="cls-27" x="20.03" width="0.03" height="8.37"/><rect class="cls-28" x="20.06" width="0.03" height="8.37"/><rect class="cls-29" x="20.09" width="0.03" height="8.37"/><rect class="cls-30" x="20.12" width="0.03" height="8.37"/><rect class="cls-31" x="20.15" width="0.03" height="8.37"/><rect class="cls-32" x="20.18" width="0.03" height="8.37"/><rect class="cls-33" x="20.21" width="0.03" height="8.37"/><rect class="cls-34" x="20.24" width="0.03" height="8.37"/><rect class="cls-35" x="20.26" width="0.03" height="8.37"/><rect class="cls-36" x="20.29" width="0.03" height="8.37"/><rect class="cls-37" x="20.32" width="0.03" height="8.37"/><rect class="cls-38" x="20.35" width="0.03" height="8.37"/><rect class="cls-39" x="20.38" width="0.03" height="8.37"/><rect class="cls-40" x="20.41" width="0.03" height="8.37"/><rect class="cls-41" x="20.44" width="0.03" height="8.37"/><rect class="cls-42" x="20.47" width="0.03" height="8.37"/><rect class="cls-43" x="20.5" width="0.03" height="8.37"/><rect class="cls-44" x="20.52" width="0.03" height="8.37"/><rect class="cls-45" x="20.55" width="0.03" height="8.37"/><rect class="cls-46" x="20.58" width="0.03" height="8.37"/><rect class="cls-47" x="20.61" width="0.03" height="8.37"/><rect class="cls-48" x="20.64" width="0.03" height="8.37"/><rect class="cls-49" x="20.67" width="0.03" height="8.37"/><rect class="cls-50" x="20.7" width="0.03" height="8.37"/><rect class="cls-51" x="20.73" width="0.03" height="8.37"/><rect class="cls-52" x="20.75" width="0.03" height="8.37"/><rect class="cls-53" x="20.78" width="0.03" height="8.37"/><rect class="cls-54" x="20.81" width="0.03" height="8.37"/><rect class="cls-55" x="20.84" width="0.03" height="8.37"/><rect class="cls-56" x="20.87" width="0.03" height="8.37"/><rect class="cls-57" x="20.9" width="0.03" height="8.37"/><rect class="cls-58" x="20.93" width="0.03" height="8.37"/><rect class="cls-59" x="20.96" width="0.03" height="8.37"/><rect class="cls-60" x="20.99" width="0.03" height="8.37"/><rect class="cls-61" x="21.01" width="0.03" height="8.37"/><rect class="cls-62" x="21.04" width="0.03" height="8.37"/><rect class="cls-63" x="21.07" width="0.03" height="8.37"/><rect class="cls-64" x="21.1" width="0.03" height="8.37"/><rect class="cls-65" x="21.13" width="0.03" height="8.37"/><rect class="cls-66" x="21.16" width="0.03" height="8.37"/><rect class="cls-67" x="21.19" width="0.03" height="8.37"/><rect class="cls-68" x="21.22" width="0.03" height="8.37"/><rect class="cls-69" x="21.25" width="0.03" height="8.37"/><rect class="cls-70" x="21.27" width="0.03" height="8.37"/><rect class="cls-71" x="21.3" width="0.03" height="8.37"/><rect class="cls-72" x="21.33" width="0.03" height="8.37"/><rect class="cls-73" x="21.36" width="0.03" height="8.37"/><rect class="cls-74" x="21.39" width="0.03" height="8.37"/><rect class="cls-75" x="21.42" width="0.03" height="8.37"/><rect class="cls-76" x="21.45" width="0.03" height="8.37"/><rect class="cls-77" x="21.48" width="0.03" height="8.37"/><rect class="cls-78" x="21.51" width="0.03" height="8.37"/><rect class="cls-79" x="21.53" width="0.03" height="8.37"/><rect class="cls-80" x="21.56" width="0.03" height="8.37"/><rect class="cls-81" x="21.59" width="0.03" height="8.37"/><rect class="cls-82" x="21.62" width="0.03" height="8.37"/><rect class="cls-83" x="21.65" width="0.03" height="8.37"/><rect class="cls-84" x="21.68" width="0.03" height="8.37"/><rect class="cls-85" x="21.71" width="0.03" height="8.37"/><rect class="cls-86" x="21.74" width="0.03" height="8.37"/><rect class="cls-87" x="21.77" width="0.03" height="8.37"/><rect class="cls-88" x="21.79" width="0.03" height="8.37"/><rect class="cls-89" x="21.82" width="0.03" height="8.37"/><rect class="cls-90" x="21.85" width="0.03" height="8.37"/><rect class="cls-91" x="21.88" width="0.03" height="8.37"/><rect class="cls-92" x="21.91" width="0.03" height="8.37"/><rect class="cls-93" x="21.94" width="0.03" height="8.37"/><rect class="cls-94" x="21.97" width="0.03" height="8.37"/><rect class="cls-95" x="22" width="0.03" height="8.37"/><rect class="cls-96" x="22.02" width="0.03" height="8.37"/><rect class="cls-97" x="22.05" width="0.03" height="8.37"/><rect class="cls-98" x="22.08" width="0.03" height="8.37"/><rect class="cls-99" x="22.11" width="0.03" height="8.37"/><rect class="cls-100" x="22.14" width="0.03" height="8.37"/><rect class="cls-101" x="22.17" width="0.03" height="8.37"/><rect class="cls-102" x="22.2" width="0.03" height="8.37"/><rect class="cls-103" x="22.23" width="0.03" height="8.37"/><rect class="cls-104" x="22.26" width="0.03" height="8.37"/><rect class="cls-105" x="22.28" width="0.03" height="8.37"/><rect class="cls-106" x="22.31" width="0.03" height="8.37"/><rect class="cls-107" x="22.34" width="0.03" height="8.37"/><rect class="cls-108" x="22.37" width="0.03" height="8.37"/><rect class="cls-109" x="22.4" width="0.03" height="8.37"/><rect class="cls-110" x="22.43" width="0.03" height="8.37"/><rect class="cls-111" x="22.46" width="0.03" height="8.37"/><rect class="cls-112" x="22.49" width="0.03" height="8.37"/><rect class="cls-113" x="22.52" width="0.03" height="8.37"/><rect class="cls-114" x="22.54" width="0.03" height="8.37"/><rect class="cls-115" x="22.57" width="0.03" height="8.37"/><rect class="cls-116" x="22.6" width="0.03" height="8.37"/><rect class="cls-117" x="22.63" width="0.03" height="8.37"/><rect class="cls-118" x="22.66" width="0.03" height="8.37"/><rect class="cls-119" x="22.69" width="0.03" height="8.37"/><rect class="cls-120" x="22.72" width="0.03" height="8.37"/><rect class="cls-121" x="22.75" width="0.03" height="8.37"/><rect class="cls-122" x="22.78" width="0.03" height="8.37"/><rect class="cls-123" x="22.8" width="0.03" height="8.37"/><rect class="cls-124" x="22.83" width="0.03" height="8.37"/><rect class="cls-125" x="22.86" width="0.03" height="8.37"/><rect class="cls-126" x="22.89" width="0.03" height="8.37"/><rect class="cls-127" x="22.92" width="0.03" height="8.37"/><rect class="cls-128" x="22.95" width="0.03" height="8.37"/><rect class="cls-129" x="22.98" width="0.03" height="8.37"/><rect class="cls-130" x="23.01" width="0.03" height="8.37"/><rect class="cls-131" x="23.04" width="0.03" height="8.37"/><rect class="cls-132" x="23.06" width="0.03" height="8.37"/><rect class="cls-133" x="23.09" width="0.03" height="8.37"/><rect class="cls-134" x="23.12" width="0.03" height="8.37"/><rect class="cls-135" x="23.15" width="0.03" height="8.37"/><rect class="cls-136" x="23.18" width="0.03" height="8.37"/><rect class="cls-137" x="23.21" width="0.03" height="8.37"/><rect class="cls-138" x="23.24" width="0.03" height="8.37"/><rect class="cls-139" x="23.27" width="0.03" height="8.37"/><rect class="cls-140" x="23.29" width="0.03" height="8.37"/><rect class="cls-141" x="23.32" width="0.03" height="8.37"/><rect class="cls-142" x="23.35" width="0.03" height="8.37"/><rect class="cls-143" x="23.38" width="0.03" height="8.37"/><rect class="cls-144" x="23.41" width="0.03" height="8.37"/><rect class="cls-145" x="23.44" width="0.03" height="8.37"/><rect class="cls-146" x="23.47" width="0.03" height="8.37"/><rect class="cls-147" x="23.5" width="0.03" height="8.37"/><rect class="cls-148" x="23.53" width="0.03" height="8.37"/><rect class="cls-149" x="23.55" width="0.03" height="8.37"/><rect class="cls-150" x="23.58" width="0.03" height="8.37"/><rect class="cls-151" x="23.61" width="0.03" height="8.37"/><rect class="cls-152" x="23.64" width="0.03" height="8.37"/><rect class="cls-153" x="23.67" width="0.03" height="8.37"/><rect class="cls-154" x="23.7" width="0.03" height="8.37"/><rect class="cls-155" x="23.73" width="0.03" height="8.37"/><rect class="cls-156" x="23.76" width="0.03" height="8.37"/><rect class="cls-157" x="23.79" width="0.03" height="8.37"/><rect class="cls-158" x="23.81" width="0.03" height="8.37"/><rect class="cls-159" x="23.84" width="0.03" height="8.37"/><rect class="cls-160" x="23.87" width="0.03" height="8.37"/><rect class="cls-161" x="23.9" width="0.03" height="8.37"/><rect class="cls-162" x="23.93" width="0.03" height="8.37"/><rect class="cls-163" x="23.96" width="0.03" height="8.37"/><rect class="cls-164" x="23.99" width="0.03" height="8.37"/><rect class="cls-165" x="24.02" width="0.03" height="8.37"/><rect class="cls-166" x="24.05" width="0.03" height="8.37"/><rect class="cls-167" x="24.07" width="0.03" height="8.37"/><rect class="cls-168" x="24.1" width="0.03" height="8.37"/><rect class="cls-169" x="24.13" width="0.03" height="8.37"/><rect class="cls-170" x="24.16" width="0.03" height="8.37"/><rect class="cls-171" x="24.19" width="0.03" height="8.37"/><rect class="cls-172" x="24.22" width="0.03" height="8.37"/><rect class="cls-173" x="24.25" width="0.03" height="8.37"/><rect class="cls-174" x="24.28" width="0.03" height="8.37"/><rect class="cls-175" x="24.3" width="0.03" height="8.37"/><rect class="cls-176" x="24.33" width="0.03" height="8.37"/><rect class="cls-177" x="24.36" width="0.03" height="8.37"/><rect class="cls-178" x="24.39" width="0.03" height="8.37"/><rect class="cls-179" x="24.42" width="0.03" height="8.37"/><rect class="cls-180" x="24.45" width="0.03" height="8.37"/><rect class="cls-181" x="24.48" width="0.03" height="8.37"/><rect class="cls-182" x="24.51" width="0.03" height="8.37"/><rect class="cls-183" x="24.54" width="0.03" height="8.37"/><rect class="cls-184" x="24.56" width="0.03" height="8.37"/><rect class="cls-185" x="24.59" width="0.03" height="8.37"/><rect class="cls-186" x="24.62" width="0.03" height="8.37"/><rect class="cls-187" x="24.65" width="0.03" height="8.37"/><rect class="cls-188" x="24.68" width="0.03" height="8.37"/><rect class="cls-189" x="24.71" width="0.03" height="8.37"/><rect class="cls-190" x="24.74" width="0.03" height="8.37"/><rect class="cls-191" x="24.77" width="0.03" height="8.37"/><rect class="cls-192" x="24.8" width="0.03" height="8.37"/><rect class="cls-193" x="24.82" width="0.03" height="8.37"/><rect class="cls-194" x="24.85" width="0.03" height="8.37"/><rect class="cls-195" x="24.88" width="0.03" height="8.37"/><rect class="cls-196" x="24.91" width="0.03" height="8.37"/><rect class="cls-197" x="24.94" width="0.03" height="8.37"/><rect class="cls-198" x="24.97" width="0.03" height="8.37"/><rect class="cls-199" x="25" width="0.03" height="8.37"/><rect class="cls-200" x="25.03" width="0.03" height="8.37"/><rect class="cls-201" x="25.06" width="0.03" height="8.37"/><rect class="cls-202" x="25.08" width="0.03" height="8.37"/><rect class="cls-203" x="25.11" width="0.03" height="8.37"/><rect class="cls-204" x="25.14" width="0.03" height="8.37"/><rect class="cls-205" x="25.17" width="0.03" height="8.37"/><rect class="cls-206" x="25.2" width="0.03" height="8.37"/><rect class="cls-207" x="25.23" width="0.03" height="8.37"/><rect class="cls-208" x="25.26" width="0.03" height="8.37"/><rect class="cls-209" x="25.29" width="0.03" height="8.37"/><rect class="cls-210" x="25.32" width="0.03" height="8.37"/><rect class="cls-211" x="25.34" width="0.03" height="8.37"/><rect class="cls-212" x="25.37" width="0.03" height="8.37"/><rect class="cls-213" x="25.4" width="0.03" height="8.37"/><rect class="cls-214" x="25.43" width="0.03" height="8.37"/><rect class="cls-215" x="25.46" width="0.03" height="8.37"/><rect class="cls-216" x="25.49" width="0.03" height="8.37"/><rect class="cls-217" x="25.52" width="0.03" height="8.37"/><rect class="cls-218" x="25.55" width="0.03" height="8.37"/><rect class="cls-219" x="25.57" width="0.03" height="8.37"/><rect class="cls-220" x="25.6" width="0.03" height="8.37"/><rect class="cls-221" x="25.63" width="0.03" height="8.37"/><rect class="cls-222" x="25.66" width="0.03" height="8.37"/><rect class="cls-223" x="25.69" width="0.03" height="8.37"/><rect class="cls-224" x="25.72" width="0.03" height="8.37"/><rect class="cls-225" x="25.75" width="0.03" height="8.37"/><rect class="cls-226" x="25.78" width="0.03" height="8.37"/><path class="cls-226" d="M960.71,538.69v0Z" transform="translate(-934.91 -530.32)"/></g><path class="cls-2" d="M972.44,547.62V533h4.23l4.7,8.28V533h4.09v14.6h-4.13l-4.82-8.16v8.16Z" transform="translate(-934.91 -530.32)"/></svg>